<?xml version="1.0" encoding="UTF-8"?>
<svg id="Layer_1" data-name="Layer 1" xmlns="http://www.w3.org/2000/svg" xmlns:xlink="http://www.w3.org/1999/xlink" viewBox="0 0 739.53 606.24">
  <defs>
    <style>
      .cls-1, .cls-2 {
        fill: #f5f6eb;
      }

      .cls-2, .cls-3 {
        fill-rule: evenodd;
      }

      .cls-3 {
        fill: #4e6348;
      }
    </style>
    <symbol id="Grime_Vector_Pack_03" data-name="Grime Vector Pack 03" viewBox="0 0 170.35 194.11">
      <path class="cls-3" d="M75.01.02c-.73-.11-.95.29-1.16.69.45.45,1.42.24,1.16-.69ZM61.33,3.5c-.06-.91.23-1.47.7-1.85-1.95-1.57-3.95.37-5.56,1.16,1.84.29,2.91,1.77,4.87.7ZM90.78,3.73c-.22-1.34-2.13-1.42-2.09.23.8.73,1.03-.51,2.09-.23ZM53.91,4.19c.73-.11.09,1.15.93.93.22-1.3-.65-1.52-.93-2.32-.04.34-.56.21-.93.23.25,1.02-1,.54-.93,1.39.62.23,1.37.33,1.85.69.77-.07-.9-.72,0-.93ZM46.26,7.21c2.59.21,3.45-.28,5.57-.93,1.08-3.39-2.77-3.07-3.71-.93h-1.62c.17.63-.46.47-.46.93,1.23-.41.32.22.23.93ZM40.93,9.53c.04.35-.08.85.23.93,1.35-.45,2.3-1.8,4.64-1.86-.34-1.21-.34-.87,0-2.09-2.16,1.09-5.4,1.1-6.49,3.25.62,0,1.33.09,1.62-.23ZM106.32,8.13c-.02-.68-.53-.86-.93-1.16.2.74-.77.32-.7.93.75-.13,1.08.16,1.62.23ZM112.81,11.84c.07-1.14-2.36-2.83-3.94-2.32.65,1.44,2.05,2.12,3.94,2.32ZM39.3,10.45c0-.1-1.74-.67-1.62.46.9-.31,1.46.37,1.62-.46ZM37.68,11.61c-.91,1.13-1.67-.33-2.55.7.27.04.66-.04.69.23-1.12.17-1.61,1.12-2.78.93.34.88-1.04.05-.7.93,2.64-.28,4.61-.05,5.33-2.78ZM51.13,13.7c-3-2.01-5.12,2.7-2.55,3.71,1.08.42,3.7-1.22,2.55-3.71ZM32.58,16.25c-.67.03-1.52-.13-1.85.23v.7c.62-.31,1.6-.25,1.85-.93ZM89.39,17.64c-1.62-.98-4.24-.89-5.8.23,1.36-.17,4.84,2.24,5.8-.23ZM30.96,18.34c-.05-.41.23-1.16-.46-.93-.04.27.04.66-.23.7-.01-.14-.04-.27-.23-.23-.23.7.52.41.93.46ZM103.53,21.81c7.27.76,11.2,5.6,17.86,6.26-2.54-2.97-6.22-5.44-10.9-5.56-.57-.2-.69-.86-1.16-1.16-6.11-1.59-11.73-4.09-18.55-3.48v.7c4,.77,7.63,2.05,11.83,2.09.24.46.58.81.93,1.16ZM27.25,21.35c-1.08-.5-1.96.47-2.32,1.39.99.58,2.82.27,2.32-1.39ZM101.45,31.32c.73,0,1.18.56,1.62-.23-1.97-.9-5.24-1.01-5.33-2.55-1.4-1.56-2.63.35-3.94,0,.39.76-.12,1.02-.46,1.62,1.24-.16.5,1.66,1.16,2.09.8.18.98-.26,1.39-.46.99,1.52,2.9.65,4.64.93-.1-.87.49-1.06.93-1.39ZM89.39,28.07c-.22.85,1.14.92,1.16.23-.27-.19-.62-.31-1.16-.23ZM126.26,30.63c-.87-.83-2.15-1.25-3.71-1.39.31,1.55,1.73,1.98,3.01,2.55.26-.36.75-.48.69-1.16ZM75.24,34.33c-.25-1.07-.68-1.94-1.62-2.32-.21.41-.65.59-.46,1.39.72.28.96,1.05,2.09.93ZM108.64,32.71c-1.14.41-1.02,1.03-1.16,2.09.69-.34,1.66-1.29,1.16-2.09ZM59.48,33.87c-3.42-1.08-4,1.2-6.26,2.32.3,2.16-1.54,2.17-2.32,3.25,3.91-.32,5.83-2.07,9.04-3.48.37-.75-.33-1.2-.46-2.09ZM95.19,34.57c.27.35.67.57.69,1.16.93.08.61-1.09,1.16-1.39-.71.17-.45-.64-1.16-.46-.73.95-1.29,0-2.09-.23.12.97-1.61.09-1.39,1.16,1.17.16,1.15.07,2.09.46.25-.22.07-.86.7-.69ZM104,38.28h.46c.19-1.03.82-1.25,1.85-1.85-.59-.34-3.06-.02-2.32-.93.05.18.19.27.46.23,0-.32.11-.51.23-.69-1.44.43-1.13-.88-2.09-.93-.3.55-.44,1.26-1.16,1.39.73,1.04,1.48,2.08,2.55,2.78ZM92.17,36.42c-.13.92-.13.7,0,1.62,1.19-.5,1.15.22,2.32.23-.4-1.13-.04-2.67-.7-3.01-.63.42-.77,1.6-1.62,1.16ZM78.96,35.73c-.12,1.1,1.31.62,1.62.23-.81.19-.89-.34-1.62-.23ZM132.29,37.58c.95.68,1.97,1.27,2.78,2.09,1.28-1.48-1.18-2.91-2.55-3.25.19.65-.33.6-.23,1.16ZM65.27,37.12c-.19.27-.31.62-.23,1.16.58.03.96-.12,1.16-.46-.27-.04-.25-.37-.23-.69h-.7ZM97.04,40.13c-.07-.54-.37-.87-.23-1.62h-.7c-.01.76-.66.89-.46,1.85.57.03,1.12.04,1.39-.23ZM67.13,38.74c-.4.14.02,1.1-.46,1.16-.65-.29-1.15-.57-1.85-.23.33,2.03,3.06.87,3.71,0-.28-.05-.14-.26,0-.47-.49-.13-.66-.57-1.39-.46ZM112.34,42.91c.11-.73-.33-.91-.46-1.39-.91-.06-.71.99-1.62.93.43-.41-.1-.68-.23-1.16-2.48.04-.94,3.3.69,3.25.23-.59.66-1.12,0-1.39.81.19.89-.34,1.62-.23ZM78.96,42.22c-1.24,1.34-2.28.46-3.94,0-1.01,3.59,4.41,1.96,3.94,0ZM112.34,45c.09-.78-.4-.99-.7-1.39.12.58,0,1.4.7,1.39ZM118.61,44.07h-.93v.93c-.88-.22-1.42-.16-2.09,0,.94.91-.53,1.23-.7,2.32h1.62c.02-1.48.79-.31,1.16-.7-.3-.47-.96-.59-1.16-1.16.77.02,1.72-.4,2.09-1.39ZM9.32,102.23c.18.04.36.06.54.04-.07-.2-.16-.39-.24-.58.01-.26-.09-.54-.3-.7-.69-1.52-1.47-2.93-2.03-4.47,0-.01,0-.03.02-.04h-.03c-.36-1.01-.62-2.06-.67-3.25.62-.64,1.58-1.27,1.85-2.08.63-1.9-.35-3.73-.46-5.8-.09-1.77,1.01-4.52.93-7.19-.1-3.06.17-5.25,0-7.65.89-.81.81-2.58,1.39-3.71-.41-.36-.15-1.39-.7-1.62,1.65-7.18,2.42-12.88,1.16-20.4-3.77-.25-4.9,2.07-6.72,4.87-.94,1.45-.99,2.9-1.62,4.64-.53,1.45-1.47,2.57-1.62,3.94-.34,2.94-.75,4.66-.23,6.26-1.27,2.46-.06,7.79,0,10.43,0,.08-.47.31-.46.7.03,5.43,2.43,10.88,3.71,15.77.56,2.13.82,3.85,2.09,5.33-.24.67-.04,1.68.23,2.32.46,1.08,1.45,2.29,2.45,2.89.03.1.06.21.1.36.27.08.47.05.62-.04ZM113.5,44.77h-.7c-.52,1.36-.97,2.66-.23,3.94,2.34-.11.25-2.77.93-3.94ZM118.61,46.62c.57.7,1.42-1.07.93-1.39-.13.29-1.52.45-.7.93.47-.55.06.42-.23.46ZM122.31,46.86c.98-.29.21-1.38-.46-1.39-.38.38-.28,1.46.46,1.39ZM118.61,48.48c.88-.77,1.5-1,2.32-1.39-.83-.46-1.24.11-2.32,0-.17.63.46.47.46.93-.28.03-.55.07-.46.46ZM119.07,50.1c-.4,1.64,1.81,1.89,2.55,1.62-.3,0-.3-.64,0-.69.27.78-.16.99.23,1.39.04-.27.37-.25.7-.23-.29-1.01-.07-1.03.23-1.86-1.65,1.17-2.09-.96-3.71-.23ZM134.6,52.65c-.58-.03-.72-.43-1.16,0-.04.58.36.73.7.93,0-.46.63-.29.46-.93ZM123.71,53.81c.23.2,2.01.65,1.85-.23-.54.46-1.31-.43-1.85.23ZM69.91,68.65c1.63,1.28,4.56.42,3.94-2.55-1.57-2.27-5.63-.3-3.94,2.55ZM132.05,113.86c-.07.61.32.76.93.7,0-.32.11-.51.23-.7-.3-.3-.85-.3-1.16,0ZM134.14,116.88h-.93c-.39.74-.4.97-.23,1.85.95-.06,1.04-.97,1.16-1.85ZM123.47,19.96c3.64,4.09,6.55,8.9,10.43,12.75.71-.17.68.4,1.39.23.48,3.73,2.58,5.64,3.25,8.35-.72-.13-.61-1.09-1.39-1.16-.09.6-.69.7-.7,1.39,1.11.12.97,1.5,2.09,1.62.5-.19-.09-1.48.46-1.62.35,1.05,2.59,1.42,1.86,2.78-.81.03-.88-1.89-1.86-.93.11,1.59,1.71,3.27,2.55,4.87-1.46.08-2.32.78-3.48,1.16-1.67-1.58-4.21-2.28-5.1-4.64-4.63-1.13-7.31-6.54-12.06-6.03v-1.16c-2.12-1.17-4.29-.91-5.56-2.78,2.04-1.57-1.08-5.51-2.78-2.78.73,2.2-1.37,1.56-2.09,2.32-.08-.54-.15-1.09-.93-.93-.3.66-.73.69-1.39,1.39.97,1.12,2.57-.05,3.94.93-.43.06.13.38-.23.46-.82-.72-1.7.07-3.01-.7-.01,2.3-1.09,3.15-1.85,4.87.56.22.61.93,1.62.7-.01-.43.18-.49.46-.23-.41-1.25-.98-1.7.23-2.09.13.93.13.7,0,1.62,1.22.01,1.48,1.84,2.55.7-1.62-.01-.1-1.75-1.16-2.32.56.1.5-.42,1.16-.23-.03-1.13-1.77-.54-1.85-1.62,1.3.34,1.78-.03,2.78-.46.12.34.34.58.47.93-.64-.23-.68,1.3-.47,1.16.58-.93.47-.16.7.23.03-.51.98-.1,1.39-.23.22-1.14-1.14-.33-1.16-.7.28-.05.14-.26,0-.46,1.01-.03,1.61-.22,2.09,0-.2.41-.77.72,0,.93.35-.58.8-1.06,1.62-1.16.24.3.23.85.46,1.16-.34.13-1.2-.27-1.16.23.95.6,1.58-.96,1.86.46-.71,0-1.53-.14-1.39.7.52.1,1.26-.72,1.39-.23-.26.36-.75.48-.7,1.16,2.31.51,5.67-.93,6.96,1.86.23-.31.62-.46.93-.7.29.63.93.93,1.39,1.39-.75-.2-.32.77-.93.7.3-.91-.85-.82-.23-.23-1.03-.62-2.51.04-3.25.46-.2-.86-1.2-1.17-1.86-.93.3,1.07,1.17,1.61,1.86,1.16-.27.34-.27.59,0,.93,2.34.49,4.24,2.5,4.17,4.64,1.1-1.33,2.26,1.83,3.94,2.09-1.08-.19-1.47.99-.7,1.39.14-.55,1.43.04,1.62-.46.67-1.46-1.07-.92-.47-2.32-2.43-.94-1.78-3.34-3.01-4.64.86.25.75-.49,1.16-.7,1.51.92,2.4,1.6,3.71,2.78-.07-.07-.38.32-.23.46.78.7,2.93.75,3.25,2.55-1.14,1.14-1.11,2.82-1.39,3.25-.48-.27-1.23-.4-1.62-.45-.01,1.34-1.09.25-1.39,1.14,1.19-.26.41,1.44,1.39,1.39.04-.27.37-.25.7-.23-.16-.86.37-1.02,1.16-.93-.44.36.33.9-.23,1.39.59.34,1.41.44,1.39,1.39,1.92-.64,4.24,1.47,3.48,2.78.64-.35-.81.56-.7,1.16,1.93.44,1.15,3.67,3.94,2.78.14.56.33,1.06.23,1.86,1.62.62,2.3,2.18,3.71,3.01.31-.81.66-.71,1.16-.93-.62-.98,1.29-2.4.23-3.25.83.06,1.6.06,1.39-.93-.49-.51-1.03-.05-1.39.23-.93-2.38.02-4.35-.93-6.96,1.37-.07.94-1.34,1.16-2.09-.27-.11-.53-.25-.7-.46-.85-2.8-3.59-6.24-4.41-10.43-1.41-1.3-1.97-3.44-2.55-5.57-4.04-5.02-6.71-11.86-11.13-15.54-1.04-.87-3.06-1.45-3.25-3.01-.73.04-.77-.62-1.62-.46-.26-1.4-1.92-2.5-3.25-2.09.1,1.13.88,1.59,1.85,1.85ZM145.5,61c-.82-.29-1.68-.89-1.62-1.39.04-.26.23-.13.23,0,.97-.75,1.57-.15,1.39,1.39ZM144.34,52.19c-.77,2.03.96,4.19.7,6.26-.55-.07-.87-.37-1.62-.23-.76-1.58-2.41-5.41-2.55-6.95.59-.01.28.17.23.46.7.23,1.93,1.46,3.25.46ZM133.21,53.83s0,0,0-.01c-.41-.02-.31-.02,0,.01ZM103.77,32.48c.52-.8.92.45.93.93.77-.15,1.26-.6,1.16-1.62-.71.14-2-.3-2.32.23.14.01.27.03.23.23-.13,0-.26.19,0,.23ZM129.27,33.64c-.16-1.17-1.12-2.18-2.32-1.62.6,2.1,3.69,1.72,3.94,4.17.73.04,1.4,0,1.62-.46-1.37-.41-1.34-2.22-3.25-2.09ZM76.17,32.94c1.52-.4-.01.43,1.16.7-.78.5-.73,1.27-1.85.7-.12.97.41,1.29.46,2.09-.43-.01-.49.18-.23.46-.43-.37-.79.21-1.16-.46-.25-.87.58-.66.46-1.39-1.31-.04-1.81.5-2.55.46-.37-3.77-5.25.62-1.39.23.21,1.11,1.6,1.03,1.85,2.09,1.25-.26,3.44,1.38,3.01,2.78,1.1-.57,2.78-.03,3.48-1.39-1.54-.38-.65-2.12.23-2.55-.44.05-.51-.26-.93-.23-.31.39.08,1.48-.7,1.39.75-1.05-.77-.8-.7-1.39.15-.7.5.22.93,0,0-.77-.93-.62-1.16-1.16,1.05-.49,1.62-1.47,2.09-2.55-.64.13-.81.73-1.62.69-.3-.55.03-.43-.23-1.16,1.24-.19,2.17-.04,3.48.23.26-.71,1.02-.93.93-1.39-.13.35,1.85-.11,1.16.7.46.07.46-.31.7-.46.69,1.31.45,3.81-.23,2.32-.49-1.08-1.95-.87-2.55,0-1.02,3.58,7.73,2.58,5.33,6.03.38,0,.13.64.46.7.05-.26.26-.36.46-.46-.29.75.75.18.46.93-.75.29-.18-.75-.93-.46.06.68-.52.71-.46,1.39.42-.03.54.23.46.69,1.35-.47,1.52,1.09,1.62,2.09h.93c-.12-.82-.68-1.04-.23-1.85-.63.07-1.22-1.07-.93-1.16,2.32.5.66,3.57,3.01,3.94-.34.04-.21.56-.23.93,1.58.06,4.12,2.29,5.1.7-.98-.56-1.58-1.52-2.09-2.55-.06.33-.51.26-.7.46-.94-1.19-1.52-3.84-1.16-4.41.53.4,1.94.86,2.09-.23-.87.42-1.78-.13-2.09-.93,1.28-.41.89.32,2.09,0,.05-.44-.26-.51-.23-.93-.79.18-1.66-.05-2.55.46-.44-.96-2.19-1.83-1.16-3.48.54,1.03,1.76.12,1.85-.7-.37-.33-.59-.8-.7-1.39.23,0,.28-.19.46-.23.86-.25.66.58,1.39.46.19-.27.3-.62.23-1.16-1.5.3-.98-2.88-2.09-3.94-.31,1.16-1.34,1.6-1.62,2.78.99.62,1.83,2.12-.46,3.25-.8-.74-1.99-1.11-2.32-2.32,1.07-.01,1.5-.66,2.32-.93-.47-1.43-.55-.9-.23-2.55-.76,0-1.15-.39-2.09-.23.04-.58-.36-.73-.69-.93-3.96.06-8.47-.16-12.06,1.62-.09.55,1.06-.13.7.69-.3.83-.76.07-1.39.46-.07.55-.36.87-.23,1.62.79-.75,3.16-.63,3.01.93ZM68.06,37.81c-.41-.21-.3-.94-1.16-.69-.09.58,1.12,1.02,1.16.69ZM79.42,37.81c.65-.19.6.33,1.16.23-.07-.45.31-.46.46-.69-.67.5-1.33-.42-1.62.46ZM84.06,43.38c-.65-1.35-1.54-2.37-3.48-1.85-.4.77-.44,1.52-.46,2.09-1.25-.43-1.07,1.27-1.62.23-.02.6-.91.33-.93.93.6.38,1.11.83,1.16,1.16.69-.44,1.47,1,2.78.7-.61-1.33-.84-3.21.23-4.4-.16,1.25,1.5,1.62,2.32,1.16ZM80.11,44.77c-.23.71-.62-.27-.93-.23.15-.31.5-.43.93-.46.05.4-.39.6,0,.7ZM99.13,43.61v-.69c-.81-.39-1.91.64-2.09,1.62.86-.64.83-.99,2.09-.93ZM115.82,44.31c.23-.52,1.26.5,1.62-.23-.62-.47-.88-.22-1.39-.46.41.62-1.02.45-.23.7ZM107.48,47.78v-1.39c-1.09-.16-1.08.77-1.86.93-.05-.18,0-.46-.23-.46-.13,1.13,1.53.48,2.09.93ZM148.52,118.97c.91-.94,1.38-2,1.69-3.17l-3.31,2.94c.62,0,1.32-.09,1.62.23ZM64.35,32.94c1.72,2.17,5.3.21,6.96-.23.14-.74-.44-.72,0-1.16.72.02,1.29-.1,1.62-.46-1.1-.28-.47-.86,0-1.62-2.33-.85-3.57,2.71-5.8.69-2.22.49-4.17,1.24-5.33,2.78.6.83,1.63.15,2.55,0ZM169.15,110.85c-.36-3.6-1.05-6.95-1.98-10.12l.36-.32c-.03-.57-.04-1.12.23-1.39-2.73-5.16-4.57-11.19-7.88-15.77-.94-3.05-3.38-5.68-3.48-8.81.68.51,1.14.72,2.09.46.35-1.42-.82-2.95-1.16-4.41-.93-.16-1.33.22-2.09.23-.04-2.33-1.75-3.68-2.78-5.56-1.31-2.39-1.25-6.24-3.71-7.42-.86,2.57,1.6,5.61,2.55,7.88-.48.85-1.36-.14-2.09.46.02,3.58,3.59,4.55,1.39,7.42.32.92,1.24,1.23,2.09,1.62.41,2.86,3.03,5.23,2.32,9.27.92,1.52,1.21,3.43,1.16,5.8-.03,1.59-.04,4.12-.46,5.8-.38,1.53-1.43,3.21-2.09,4.87-.73,1.83-1.93,3.45-2.09,5.56-.09,1.18.32,2.51,0,3.48-.74,2.2-.87,4.16-1.33,5.87l.57-.51c-.35,1.78-.81,3.46-1.79,4.6-.77-.08-.75-.95-1.62-.93-1.7,4.95-5.72,7.57-10.2,9.74-.48-.71.48-1.66-.7-1.85-.84.87-.2,1.92-.7,3.25-6.88,4.95-14.36,9.29-15.07,20.4-1.91,2.65-4.65,4.47-6.96,6.72-4.84,1.41-7.87,3.97-13.22,4.41-7.35-.87-16.14,2.16-22.96.7-1.86.89-3.96-.44-6.49-.23-2.04-1.2-4.56-1.24-7.19-1.86-2.32-.55-4.34-1.8-5.33.23.71.91,2.31.93,3.02,1.86,11.41,2.52,25.98,5.68,38.72,2.32,4.62-1.22,8.71-4.25,13.91-3.71,2.08-1.02,3.85-1.1,5.8-1.86,2.44-.95,4.86-2.8,7.19-3.71,1.7-.67,3.59-.73,4.87-1.62,1.15-.8,1.71-2.39,2.78-3.25,3.4-.62,3.72-4.32,7.65-4.4.21-.41.52-.72.93-.93.58-4.9,4.48-6.49,5.33-11.13.52-.64,1.11-1.21,1.62-1.85.45-3.48,2.54-6.21,1.85-9.51.44-.95,1.2-1.58,1.86-2.32.75,1.16-.41,2.85.23,3.94-1.07,1.04-1.62,3.76-1.62,5.1-1.78,1.48-1.6,4.05-2.55,6.03-.96,2.01-2.44,3.76-2.78,6.03-1.89,1.9-2.97,4.6-4.41,6.95.47.85.69.89,1.86.7.31,1.08,1.01,1.77.69,3.48,2.57,3.94,4.04,14.56,1.16,18.55-1.93-.33-2.37-2.39-3.71-3.48-1.16-.94-2.65-1.09-3.71-2.32-.38-.45-.74-1.86-1.39-2.32.52-1.65,1.29-4.07.23-5.8,1.09-.18,1.01-1.3.7-2.32.3-.32,1.01-.23,1.62-.23.3-1.14,1.04-1.8.23-3.01-2.62.13-3.01,1.88-4.64,3.25-4.71,3.96-11.05,6.29-14.84,10.67-4.66,1.83-8.18,4.8-13.91,5.56-1.68,1.56-4.87,1.62-5.79,3.94,1.18-.43,1.77-.16,2.32.93.12-.42,1.21-1.16.93,0,1.21-.03,1.35-1.12,2.55-1.16.6.02.37.86.7,1.16,2.29-1.42,2.51.91,1.62,2.32.58-.03.73-.44.93.23-1.33,2.02-1.5,4.58-1.39,6.49,1.38.24,1.32-1.47,2.32-2.09,1.62-1,4.71-1.14,5.8-.23.63-2.39,3.94-5.1,7.65-4.4,1.73-2.16,3.68-3.22,6.26-4.87,3.44-2.21,5.35-5.2,10.9-4.17,2.45,2.55,1.37,6.3-.46,8.81.73.11.82-.42,1.62-.23,1.56-2.77,4.87-3.78,6.03-6.96,1.67-.08,1.94-2.09,3.25-1.86.37-1.31,1.14-2.18,2.32-2.09,2.65-5.24,7.79-9.21,8.58-15.54,3.31-3.03,3.25-9.42,5.33-13.68.17-.71-.24-.85-.23-1.39.43-.26.49-.9.93-1.16-.55-1.94.46-2.84.7-4.64.82-6.2-.44-14.79-.93-19.71ZM148.64,76.08c-.15-.12-.34-.21-.59-.24-1.01.7-1.02,2.12-.46,3.25.9.12.96-.59,1.62-.69,0-.91-.03-1.77-.48-2.23,0-.03,0-.06.01-.09-.04,0-.07,0-.11,0ZM119.3,129.17c.3.32,1.1.32,1.39,0v-.7c-.53-.5-1.45-.08-1.39.7ZM39.07,142.15c-3.33.83,1.62,4.53,1.62,1.16,0-1.18-1.06-1.3-1.62-1.16ZM81.97,151.19v1.16c.71.36.71-1.51,0-1.16ZM106.32,178.32c-.35.5-.26,1.44-.93,1.62-.12-.29-.57-1.41-.93-.7.29,1.61-.65,3.24-.23,5.33.28-.33.88-.35,1.16-.7-.12-.81-.62-1.24-.7-2.09h2.32c-.17-.82-1.13-3.11.23-2.78.21-.75-.76-.33-.93-.7ZM102.61,179.48c-.52.85.28,1.77-.23,2.78.8-.05,1.01-.69,1.16-1.39-1.43.24.32-1.35-.93-1.39ZM101.68,188.76c-.1.44-.66.42-.46,1.16h.93c.03-.58-.12-.96-.47-1.16ZM99.59,193.4c-.05-.44.26-.51.23-.93-.3-.01-.32-.3-.7-.23-.35.33-.23,1.21.46,1.16ZM91.94,192.93c.37.91-1,.08-.93.69.88-.33.45.64,1.16.46-.33-.66.72-1.27-.23-1.16ZM53.68,179.48c.82.25,1.33.62,2.09,0-.84.28-1.83-.46-2.09,0ZM72.46,174.15c-.14-.74.44-.72,0-1.16-1.81,1.01-4.14-.56-5.1-1.86-.65.12-1.21.34-1.85.46.04-1.13-2.04-1.09-2.55-.93-.87-1.83-1.53-3.88-4.41-3.71.07-.84-.92-.63-.93-1.39-6.75-1.99-9.35-8.12-15.3-10.9-.37-1.25-1.17-2.07-2.55-2.32-1.38-3.26-5.38-5.13-6.26-8.12,3.11,3.77,6.71,7.05,11.36,9.28.41-.21.72-.52.93-.93-3.13-2.28-5.28-5.54-9.27-6.96-.83-1.34-2.65-1.68-3.01-3.48-.86-.07-1.59-.26-1.86-.93-1.58-6.35-5.49-8.99-7.65-14.61,1.11,1.19,3.01,1.45,4.17,2.55.58.55.8,1.6,1.39,2.09.28.23,1.26.14,1.62.46.72.62.85.68,1.62,1.16,2.01,1.24,4.24,3.55,6.49,4.87,2.79,1.64,5.46,3.15,8.81,4.17.06-.48,1.03-.05.93-.7-3.08-3.8-9.44-4.32-12.52-8.12h-1.39c.2-.9-.57-.82-.7-1.39-2.92-.56-5.08-3.8-6.96-5.56-1.93-1.81-4.33-2.14-4.17-5.1.34-.74.88-1.29.7-2.55-.14-.32-.89-.03-.93-.46,0-.11,0-.21,0-.32l1.39,1.02c-2.16-1.64.43-3.48-.46-5.56,2.12-7.8,4.66-14.03,6.14-22.96.11-.33.21-.65.32-.97.92-1.16,1.46-2.7,1.88-4.36-1.75-1.25-2.52,1.39-3.94,1.85-1.54.5-3.3-.16-4.64-.23.21-2.42-2.65-3.22-4.4-4.5,0-.05,0-.09,0-.14-.05.01-.09.03-.13.05-.12-.09-.23-.18-.33-.28-.56-.09-.5.42-1.16.23-.53,1.93-1.99,3.96-3.01,4.64-1.29-4.58.52-9.46.37-13.46.03-.15.06-.3.1-.45-.05,0-.08-.02-.12-.04-.02-.3-.06-.6-.11-.89,2.36-1.96,2.35-5.61,4.64-7.19,2-7.95,8.14-13.09,10.9-20.64,1.73-1.59,3.01-3.64,4.17-5.8.94-.86,2.71-1.79,2.09-3.48-3.28.75-5.77,3.27-7.88,5.56-1.37,1.48-4.3,4.36-5.8,6.72-.36.56-.18,1.29-.46,1.86-.19.37-.73.4-.93.7-4.15,6.23-6.07,14.32-7.88,21.33.31.23.46.62.69.93-.68-.06-.8.44-1.16.7-1.6,4.68-1.77,9.19-3.01,14.14.03,5.17.15,12.87,1.16,18.55-1.31-.39-.25-1.46-1.86-2.09-1.91,2.49,1,6.67,2.78,6.96l.5.36c.98,6.05,3.3,9.83,4.14,15.4.36.34,1.08.31,1.39.7.33,4.7,2.03,8.6,3.94,12.52.14.4,1.1-.02,1.16.46-.21.41-.65.59-.46,1.39.27.35.88.36,1.16.7.31,1.42,1.19,3.14,1.85,3.48-.2,1.66,1.65,2,1.16,3.25,4.45,5.37,6.1,12.57,11.36,17.39,1.82,3.67,5.29,5.68,7.42,9.04.93.16,1.32-.22,2.09-.23.27,1.87,2.76.18,2.78,2.09-.66.53-1.85-.5-2.09.7,1.55.62,2.48,1.84,4.64,1.86,1.99-1.84,3.32-2.98,5.33-4.87-.51-.03-.5-.59-.46-1.16.88-.68,2.27-.04,3.25.46-.43,2.81-2.83,3.66-4.64,5.1.08.83.62.85.23,1.62-1.52.13-2.71-.07-3.71-.46.26.73-.36.56-.46.93,1.05.65,1.98,1.42,3.48,1.62,1.89-.96,2.53-3.19,4.64-3.94v-1.39c1.67-.27,2.21-3.06,4.17-1.62.38-.55.64-1.22,1.39-1.39,2.45.49,4.98,2.13,7.65.93.64,1.06,2.37,1.03,2.78,2.32,1.59-.21,2.97-1.42,4.41-.7.6-.03,1.51-.94,1.16-1.16-2.04-.97-7.39-2.53-10.2-1.16ZM130.43,124.3c.67-.1,1.06-.49,1.16-1.16-.54.24-1.08.47-1.16,1.16ZM100.75,179.95c-2.04-.47-.79,1.2.46.7-.33-.06-.27-.51-.46-.7Z"/>
    </symbol>
    <symbol id="Grime_Vector_Pack_10" data-name="Grime Vector Pack 10" viewBox="0 0 225.72 172.8">
      <path class="cls-2" d="M18,60.59c-3.77,4.75,5.81,2.25,0,0h0ZM5.61,137.43c.89.59,3.77,2.54,4.22.47-.62-.73-3.95-2.45-4.22-.47ZM23.66,139.72c3.92,1.26,7.85-2.18,7.15-7.32-5.75-10.04-16.45,4.35-7.15,7.32ZM60.14,40.9c.81-2.41-1.54-4.93-2.69-5.23,1.21,1.58,1.01,3.89,2.69,5.23ZM75.22,59.27c-1.08-1.98-1.04-4.54-1.79-6.69,0-1.46.56-1.31.49-2.9-2.32-.84-1.45-6.31-3.61-5.09,1.59,4.69,1.41,12.06,4.91,14.68ZM131.49,56.77c-1.26.15-3.69,1.37-3.12,2.93,1-1.06,2.55-1.05,3.12-2.93ZM126.16,84.33c.28-1.47-.3-2.49-1.09-3.41.07,1.29-.37,2.84,1.09,3.41ZM118.46,146.51c.7-1.24-.2-1.66-1.08-2.09-.28,1.02.08,1.72,1.08,2.09ZM221.47,44.54c-2.86-1.47-4.9,1.41-6.94,2.58-10.79,6.2-23.43,8.53-33.76,15.39-6.35,2.85-13.11,4.21-19.65,6.81-3.74,1.48-7.13,3.9-10.86,5.26-5.78,2.1-11.75,3.43-16.77,5.98-4.75,2.42-14.53,9.45-18.64,3.64,4.03-6.5,2.59-16.14,9.5-20.11-2.05-.34-1.67,1.14-3.82-.35-2.59,1.82-3.98,5.98-7.02,6.92-1.32-1.75-5.26-2.14-6.1-4.14,5.34-4.78,11-13.18,11.72-21.58-3.72,3.38-4.98,13.39-9.67,16.56-.75-.61-1.02-1.46-2.52-1.68-4.11,2.51-7.35,6.71-12.41,7.38-.54-.99.34-1.49.76-2.38-1.16-.75-.96,1.13-1.97.68.48-3.93-1.65-8.22-1.59-12.74.05-4.45,2.7-9.89-1.07-13.01-4.01,2.98-.34,9.3-1.15,14.48-.17,1.1-1.1,1.89-1.41,3.04-.8,2.93.18,7.35-2.79,8.72-2.44-3.62-6.31-6.99-7.76-11.22-.53-1.54.07-4.24-2.03-4.58,1.38,5.79,1.84,12.06,4.02,17.45-4.37,7.85-10.42,2.64-14.23-1.94-1.47-1.76-3.22-2.95-3.99-3.9-1.31-1.61-1.66-4.34-2.83-6.15-2.05-3.15-4.64-5.51-5.35-7.83-.43-1.41.09-3.02-.31-4.47-.52-1.86-2.59-3.79-3.75-6.01-1.37-2.61-1.94-5.74-3.25-7.59-1.05-1.49-2.96-2.11-4.12-3.5-3.85-4.62-5.73-10.91-10.03-13.7-1.51.06-2.44,1.26-2.85,3.45,1.62,4.43,5.85,7.5,7.51,12.02.51,1.39-.02,3.23.71,4.6,1.15,2.15,3.4,2.61,5.18,4.28,2.15,2.02,2.9,5.42,4.83,8.1,1.02,1.42,2.73,2.12,3.72,3.38,5.73,7.24,8.11,17.2,13.43,23.52-.59,2.47,1.28,5.2-1.1,7.51-1.45-1.02-3.92-1.51-4.25-3.11-2.15,4.61-5.59,6.71-10.05,6.83-3.66-2.79-8.88-7.79-13.64-7.87-1.72,3.75,2.81,4.56,5.07,5.99,5.56,3.51,12.14,8.9,9.25,14.76.61,1.12,2.04.19,3.57,1.14,1.09,2.42-1.6,5.96-3.2,7.27-5.48,4.47-17.15-.85-18.34,6.79,7.47,8.11,15.74-5.58,25.26.23,1.79,3.15,3.17,8.59-2.13,9.36-.79,2.17,2.88,2.05,2.15,4.18.09,1.68-1.33.41-1.43,1.73.61.24,1.39.39.93,1.17-.76,5.68-6.96,12.8-1.67,14.75,2.38-2.44,2.52-9.24,7.69-6.27.98,4.75-3.51,7.52-4.73,12.03-1.47,1.75-6.61,6.05-3.58,8.46,6.45-3.96,8.05-17.34,15.97-18.47,1.81,3.25,1.61,10.66.83,15.12-.65,3.74-6.55,13.85-2.29,18.05,4.23,4.17,9.83-3.16,10.57-7.09,1.21-6.35-6.65-12.25-5.22-19.15.36-1.74,1.67-5.13,3.08-6.88,1.36-1.68,6.88-5.8,10.05-6.83,3.77-1.21,6.55-2.04,10.65-.52,5.97,6.06,12.74,10.46,15.6,18.1,1.03,2.74.38,7.14,4.56,7.58,2.18-2.42,0-5.23-1.79-6.69-1.27-4.31-2.98-8.39-5.27-12.17.15-1.62.5-3.34,1.25-5.28,1.96-1.12,4-2.09,5.07-4.93.85-.44,1.54.88,3.17,1.02,1.08-.46,1.5-2.22,2.87-2.14,6.55,1.06,10.89,3.85,16.91,5.85,5.44,1.81,7.2,6.45,11.68,8.54,4.82,2.26,6.67,4.11,10.71,4.75,2.03-1.04,2.26-3.12,1.65-5.15-5.89-3.29-7-8.54-13.53-9.58-1.49-.24-3.19.62-4.86.19-5.2-1.33-9.65-6.27-15.23-8.37,0-3.19-3.01-4.85-5.21-6.91.67-1.24,1.6-.98,1.29-2.65-.47-.97-2.28-1.25-2.26-2.47.93-.54.69-3.37,2.47-2.27.87-1.36-1.67-1.49-.16-2.23,4.34-2.45,9.74,4.63,13.44,1.68-.46-5.55-11.23-1.85-11.79-6.84,1.7-.56,4.53,1.09,5.25-1.38-2.93-1.39-5.75,1.02-8.81.24-1.78-.46-3.32-2.21-5.17-2.97-.72-.29-4.93.1-4.5-2.32.73.11,1.62,1.75,2.38.76-1.08-.66-2.76-1.01-2.79-2.2,2.26-2.68,5.7-3.07,9.03-3.66,11.76-7.58,24.77-12.73,37.95-17.54.4.12.37.47.67.65-.19.54-.09.93.02,1.31,1.86.57-.17-1.05.11-1.71,4.92-4.52,11.79-4.64,18.21-6.4,6.83-1.87,14.17-6.89,21.07-9.85,5.14-2.21,10.04-5,14.91-7.01,2.2-.91,6.15-.46,4.95-4.53ZM40.15,7.85c-1.9-2.33-2.1-5.54-4.04-7.85.41,2.88,2.18,6.82,4.04,7.85ZM50.49,26.01c-.95-.94-.44-2.64-2.01-3.26-.11,1.28,1.48,3.41,2.01,3.26ZM56.37,112.63c-2.11.2-6.4-.46-6.83.87,2.23-.38,5.14.56,6.83-.87ZM0,96.97c1.81.17,2.92-.36,2.81-2.11-1.81-.17-2.8.48-2.81,2.11ZM220.84,115.65c1.02.9,1.61.29,3.25.33.59-1.35,1.63-2.26,1.62-4.22-2.6-.92-5.08.94-4.88,3.9Z"/>
    </symbol>
  </defs>
  <use width="170.35" height="194.11" transform="translate(103.75) scale(3.12)" xlink:href="#Grime_Vector_Pack_03"/>
  <g>
    <path class="cls-1" d="M6.79,239.49c-4,0-6.79-2.08-6.79-5.07,0-2.62,2.1-5.26,6.79-5.26,1.04,0,1.88.21,2.7.41,1.05.26,2.24.55,4.56.55,5.09,0,5.62,0,5.62-9.05v-105.15c0-3.02.14-6.07.91-8.65-5.13.09-8.01.43-10.02.66-1.29.15-2.31.27-3.38.27-5.28,0-7.17-2.62-7.17-5.07,0-2.25,1.88-4.88,7.17-4.88.99,0,1.97.07,3.21.15,2.41.17,5.99.42,13.01.42h2.67c7.18,0,9.94-.33,11.77-.55.94-.11,1.75-.21,2.74-.21,4,0,6.79,2.08,6.79,5.07,0,2.62-2.1,5.26-6.79,5.26-1.04,0-1.88-.21-2.7-.41-1.05-.26-2.24-.55-4.56-.55-4.81,0-5.43,0-5.43,9.05v105.15c0,3.02-.14,6.06-.91,8.64,5.01-.1,7.85-.43,9.83-.66,1.29-.15,2.31-.27,3.38-.27,5.29,0,7.17,2.62,7.17,5.07,0,2.25-1.88,4.88-7.17,4.88-.99,0-1.97-.07-3.21-.15-2.41-.17-6-.42-13.01-.42h-2.67c-7.18,0-9.94.33-11.77.55-.94.11-1.75.21-2.74.21Z"/>
    <path class="cls-1" d="M6.79,237.33c-2.77,0-4.63-1.17-4.63-2.91,0-1.88,1.82-3.1,4.63-3.1.78,0,1.43.16,2.18.34,1.11.27,2.49.61,5.07.61,7.11,0,7.78-1.98,7.78-11.21v-105.15c0-4.79.44-8.58,2.19-10.83h-.62c-7.07,0-10.69.42-13.09.7-1.22.14-2.19.25-3.13.25-3.14,0-5.01-1.09-5.01-2.91,0-1.68,1.92-2.72,5.01-2.72.93,0,1.88.07,3.09.15,2.41.17,6.04.42,13.13.42h2.67c7.3,0,10.14-.34,12.02-.57.9-.11,1.62-.19,2.48-.19,2.77,0,4.63,1.17,4.63,2.91,0,1.88-1.82,3.1-4.63,3.1-.78,0-1.43-.16-2.18-.34-1.11-.27-2.49-.61-5.07-.61-6.52,0-7.59,1.57-7.59,11.21v105.15c0,4.79-.44,8.58-2.19,10.83h.43c7.07,0,10.69-.42,13.09-.7,1.22-.14,2.19-.25,3.13-.25,3.14,0,5.01,1.09,5.01,2.91,0,1.68-1.92,2.72-5.01,2.72-.93,0-1.88-.07-3.09-.15-2.41-.17-6.04-.42-13.13-.42h-2.67c-7.3,0-10.14.34-12.02.57-.9.11-1.62.19-2.48.19Z"/>
    <path class="cls-1" d="M6.79,238.49c-4,0-5.79-2.04-5.79-4.07s1.79-4.26,5.79-4.26c.92,0,1.67.18,2.46.38,1.05.26,2.35.58,4.79.58,5.79,0,6.62-.62,6.62-10.05v-105.15c0-3.92.29-7.22,1.33-9.67-6.08.05-9.34.43-11.55.69-1.26.15-2.25.26-3.27.26-4.55,0-6.17-2.1-6.17-4.07s1.62-3.88,6.17-3.88c.97,0,1.94.07,3.17.15,2.39.17,6,.42,13.05.42h2.67c7.23,0,10.03-.34,11.89-.56.94-.11,1.69-.2,2.62-.2,4,0,5.79,2.04,5.79,4.07s-1.79,4.26-5.79,4.26c-.92,0-1.67-.18-2.46-.38-1.05-.26-2.35-.58-4.79-.58-5.99,0-6.43,1.39-6.43,10.05v105.15c0,3.92-.29,7.22-1.33,9.67,5.96-.06,9.17-.43,11.36-.68,1.26-.15,2.25-.26,3.27-.26,4.55,0,6.17,2.1,6.17,4.07s-1.62,3.88-6.17,3.88c-.97,0-1.94-.07-3.17-.15-2.39-.17-6-.42-13.05-.42h-2.67c-7.23,0-10.03.34-11.89.56-.94.11-1.69.2-2.62.2Z"/>
    <path class="cls-1" d="M24.73,221.64v-105.15c0-9.35.95-12.21,8.59-12.21,4.39,0,5.53.95,7.25.95,2.1,0,3.63-.76,3.63-2.1,0-1.15-1.53-1.91-3.63-1.91-2.48,0-3.63.76-14.5.76h-2.67c-10.69,0-13.55-.57-16.22-.57-2.1,0-4.01.57-4.01,1.72,0,1.34,1.91,1.91,4.01,1.91,2.67,0,5.53-.95,16.22-.95h3.82c-3.24.95-4.39,4.39-4.39,11.83v105.15c0,9.35-.76,12.21-8.78,12.21-4.39,0-5.53-.95-7.25-.95-2.1,0-3.63.76-3.63,2.1,0,1.15,1.53,1.91,3.63,1.91,2.48,0,3.63-.76,14.5-.76h2.67c10.69,0,13.55.57,16.22.57,2.1,0,4.01-.57,4.01-1.72,0-1.34-1.91-1.91-4.01-1.91-2.67,0-5.53.95-16.22.95h-3.63c3.24-.95,4.39-4.39,4.39-11.83Z"/>
    <path class="cls-1" d="M71.1,273.69c-3.05,0-5.26-2.69-5.26-6.41,0-1.5.12-7.49.28-15.79v-.58c.35-17.36.87-43.59.87-56.38v-28.82c0-19.55-4.3-19.55-7.14-19.55-3.21,0-5.45-2.08-5.45-5.07s2.24-5.07,5.45-5.07c4.89,0,12.7,2.72,14.82,19.26,8.18-13.85,22.56-21.36,41.28-21.36,30.27,0,47.63,19.31,47.63,52.97v7.63c0,12.34.47,22.42.82,29.78.18,3.91.33,6.96.33,8.96,0,3.59-2.31,6.41-5.26,6.41s-5.26-2.69-5.26-6.41c0-2.01.14-5.08.33-8.96.35-7.36.82-17.45.82-29.78v-7.25c0-29.94-13.25-45.12-39.4-45.12-13.11,0-23.29,3.94-30.26,11.71-6.95,7.76-10.48,19-10.48,33.41v7.25c0,12.78.51,39.02.85,56.38v.58c.17,8.29.29,14.28.29,15.79,0,4.42-2.64,6.41-5.26,6.41Z"/>
    <path class="cls-1" d="M71.1,271.53c-1.82,0-3.1-1.75-3.1-4.25,0-1.52.12-7.73.29-16.32.34-17.37.85-43.62.85-56.42v-28.82c0-18.08-3.56-21.71-9.3-21.71-2.03,0-3.29-1.12-3.29-2.91s1.26-2.91,3.29-2.91c4.86,0,12.95,3.35,13.21,25.49,6.73-17.85,21.74-27.59,42.9-27.59,28.89,0,45.47,18.52,45.47,50.81v7.63c0,12.38.47,22.5.82,29.88.18,3.85.32,6.9.32,8.86,0,2.34-1.39,4.25-3.1,4.25-1.83,0-3.1-1.75-3.1-4.25,0-1.96.14-5.01.32-8.86.35-7.39.82-17.5.82-29.88v-7.25c0-30.93-14.37-47.28-41.56-47.28-13.75,0-24.47,4.18-31.86,12.43-7.32,8.16-11.03,19.89-11.03,34.85v7.25c0,12.8.51,39.05.85,56.42.17,8.6.29,14.81.29,16.32,0,2.62-1.19,4.25-3.1,4.25Z"/>
    <path class="cls-1" d="M71.1,272.68c-2.47,0-4.26-2.27-4.26-5.4,0-1.53.12-7.74.29-16.34.34-17.37.85-43.61.85-56.4v-28.82c0-18.98-3.85-20.55-8.14-20.55-2.66,0-4.45-1.64-4.45-4.07s1.79-4.07,4.45-4.07c4.87,0,12.74,2.97,14.15,21.56,7.64-15.35,22.18-23.66,41.95-23.66,29.63,0,46.63,18.94,46.63,51.97v7.63c0,12.35.47,22.45.82,29.83.18,3.87.33,6.93.33,8.91,0,2.98-1.91,5.4-4.26,5.4-2.47,0-4.26-2.27-4.26-5.4,0-1.99.14-5.04.33-8.91.35-7.37.82-17.47.82-29.83v-7.25c0-38.12-21.97-46.12-40.4-46.12-26.91,0-41.73,16.38-41.73,46.12v7.25c0,12.79.51,39.03.85,56.4.17,8.6.29,14.82.29,16.34,0,3.99-2.29,5.4-4.26,5.4Z"/>
    <path class="cls-1" d="M160.41,186.91c0-30.92-15.27-49.81-44.47-49.81-23.47,0-38.74,12.21-43.89,33.21v-5.53c0-22.52-7.82-25.57-12.21-25.57-1.34,0-2.29.57-2.29,1.91s.95,1.91,2.29,1.91c7.25,0,10.31,5.53,10.31,22.71v28.82c0,19.08-1.15,68.16-1.15,72.74,0,1.72.76,3.24,2.1,3.24,1.53,0,2.1-1.53,2.1-3.24,0-4.58-1.15-53.66-1.15-72.74v-7.25c0-30.34,15.46-48.28,43.89-48.28s42.56,17.94,42.56,48.28v7.25c0,19.08-1.15,33.21-1.15,38.74,0,1.72.76,3.24,2.1,3.24,1.15,0,2.1-1.53,2.1-3.24,0-5.53-1.15-19.66-1.15-38.74v-7.63Z"/>
    <path class="cls-1" d="M284.84,239.69c-3.14,0-5.2-2.61-9.71-8.33-2.96-3.76-7.01-8.9-13.06-15.61l-23.45-26.06-37.8,40.77c6.47-.13,11.78-.56,15.84-.88,2.9-.23,5.19-.41,6.92-.41,3.71,0,6.41,2.13,6.41,5.07,0,2.45-1.68,5.07-6.41,5.07-1.64,0-3.89-.08-6.73-.17-4.97-.17-11.71-.4-20.18-.4h-2.67c-5.79,0-8.62.3-10.69.52-1.27.13-2.35.25-3.62.25-2.96,0-6.02-1.97-6.02-5.26s3.06-5.07,6.02-5.07c1.75,0,3.02.33,4.13.62,1.07.28,1.98.52,3.5.52,3.95,0,5.43,0,5.43-9.24v-78.05c0-14.63-.51-27.14-.85-35.42-.17-4.19-.3-7.21-.3-9.05,0-3.71,2.21-6.41,5.26-6.41s5.26,2.81,5.26,6.41c0,1.74-.12,4.69-.29,8.76-.34,8.38-.86,20.96-.86,35.7v75.95l53.86-59c6.21-6.79,10.32-11.97,13.33-15.75,4.47-5.62,6.5-8.18,9.62-8.18s4.88,2.45,4.88,4.88c0,2.75-2.09,4.81-7.67,10.32-3.35,3.31-7.95,7.84-13.97,14.35l-16.92,18.29,24,26.29c6.21,6.8,10.92,11.43,14.36,14.8,5.29,5.2,7.27,7.14,7.27,9.85,0,2.42-1.68,4.88-4.88,4.88Z"/>
    <path class="cls-1" d="M284.84,237.53c-2.09,0-3.95-2.35-8.01-7.51-2.98-3.78-7.06-8.96-13.15-15.72l-25.03-27.81-42.81,46.18h.84c8.45,0,15.22-.54,20.16-.93,2.86-.23,5.11-.41,6.75-.41,2.46,0,4.25,1.22,4.25,2.91,0,1.09-.55,2.91-4.25,2.91-1.62,0-3.86-.08-6.7-.17-4.95-.17-11.73-.4-20.2-.4h-2.67c-5.9,0-8.8.31-10.92.53-1.25.13-2.23.23-3.39.23-1.9,0-3.86-1.16-3.86-3.1,0-1.8,2.01-2.91,3.86-2.91,1.48,0,2.55.28,3.59.55,1.11.29,2.25.59,4.04.59,6.1,0,7.59-2.24,7.59-11.4v-78.05c0-14.67-.51-27.21-.85-35.51-.17-4.16-.29-7.17-.29-8.96,0-2.5,1.27-4.25,3.1-4.25,1.71,0,3.1,1.9,3.1,4.25,0,1.7-.12,4.65-.29,8.72-.34,8.35-.86,20.98-.86,35.74v78.25c0,1.24-.04,2.38-.12,3.42l57.74-63.25c6.26-6.85,10.4-12.06,13.42-15.86,4.02-5.06,5.85-7.37,7.93-7.37,1.88,0,2.72,1.37,2.72,2.72,0,1.85-2.06,3.88-7.03,8.78-3.38,3.33-8,7.89-14.04,14.42l-18.27,19.74,25.33,27.76c6.25,6.84,10.99,11.49,14.44,14.89,4.68,4.6,6.62,6.51,6.62,8.31,0,1.35-.84,2.72-2.72,2.72Z"/>
    <path class="cls-1" d="M284.84,238.68c-2.65,0-4.49-2.33-8.92-7.95-2.97-3.77-7.04-8.93-13.1-15.66l-24.18-26.87-40.14,43.29c7.56-.07,13.68-.56,18.24-.92,2.88-.23,5.16-.41,6.84-.41,3.13,0,5.4,1.71,5.4,4.07,0,.95-.39,4.07-5.4,4.07-1.64,0-3.89-.08-6.74-.17-4.94-.17-11.71-.4-20.17-.4h-2.67c-5.84,0-8.7.3-10.8.52-1.23.13-2.29.24-3.52.24-2.47,0-5.02-1.59-5.02-4.26,0-2.51,2.61-4.07,5.02-4.07,1.62,0,2.77.3,3.88.59,1.08.28,2.11.55,3.75.55,4.76,0,6.43-.84,6.43-10.24v-78.05c0-14.65-.51-27.17-.85-35.46-.17-4.18-.29-7.2-.29-9.01,0-3.13,1.79-5.4,4.26-5.4s4.26,2.42,4.26,5.4c0,1.73-.12,4.68-.29,8.77-.34,8.34-.86,20.96-.86,35.69,0,0,0,78.44,0,78.54l55.6-60.91c6.23-6.82,10.36-12.01,13.37-15.8,4.39-5.52,6.2-7.8,8.83-7.8,2.25,0,3.88,1.63,3.88,3.88s-2.01,4.31-7.37,9.61c-3.37,3.32-7.98,7.87-14,14.38l-17.54,18.96,24.62,26.97c6.23,6.82,10.95,11.46,14.4,14.84,5.07,4.98,6.97,6.85,6.97,9.13s-1.63,3.88-3.88,3.88Z"/>
    <path class="cls-1" d="M265.76,212.29l-25.95-28.44,18.89-20.42c14.31-15.46,20.8-20.04,20.8-22.52,0-.76-.38-1.72-1.72-1.72-2.86,0-6.49,7.44-20.61,22.9l-59.92,65.65c.38-1.72.57-3.82.57-6.49v-78.25c0-21.95,1.15-39.31,1.15-44.47,0-1.72-.95-3.24-2.1-3.24-1.34,0-2.1,1.53-2.1,3.24,0,5.34,1.15,22.52,1.15,44.47v78.05c0,9.16-1.53,12.4-8.59,12.4-3.63,0-4.77-1.15-7.63-1.15-1.34,0-2.86.76-2.86,1.91,0,1.34,1.53,2.1,2.86,2.1,3.05,0,4.96-.76,14.31-.76h2.67c13.36,0,22.52.57,26.91.57,1.72,0,3.24-.38,3.24-1.91,0-1.15-1.53-1.91-3.24-1.91-4.39,0-13.55,1.34-26.91,1.34h-4.2c.95-.38,1.72-.95,2.48-1.53l43.7-47.14,25.76,28.63c13.93,15.46,17.56,22.9,20.42,22.9,1.34,0,1.72-.95,1.72-1.72,0-2.48-6.68-7.06-20.8-22.52Z"/>
    <path class="cls-1" d="M307.17,105.71c-3.48,0-6.21-2.81-6.21-6.41,0-3.05,2.32-6.21,6.21-6.21s6.21,3.16,6.21,6.21c0,3.59-2.73,6.41-6.21,6.41Z"/>
    <path class="cls-1" d="M307.17,103.55c-2.31,0-4.05-1.83-4.05-4.25,0-1.99,1.52-4.05,4.05-4.05s4.05,2.06,4.05,4.05c0,2.42-1.74,4.25-4.05,4.25Z"/>
    <path class="cls-1" d="M307.17,104.71c-2.97,0-5.21-2.32-5.21-5.4,0-2.56,1.95-5.21,5.21-5.21s5.21,2.65,5.21,5.21c0,3.08-2.24,5.4-5.21,5.4Z"/>
    <path class="cls-1" d="M310.22,99.31c0-1.53-1.15-3.05-3.05-3.05s-3.05,1.53-3.05,3.05c0,1.72,1.15,3.24,3.05,3.24s3.05-1.53,3.05-3.24Z"/>
    <path class="cls-1" d="M431.6,312.68c-3.05,0-5.26-2.69-5.26-6.41,0-1.97.14-14.08.32-29.42v-.46c.35-29.35.82-69.54.82-81.86v-7.25c0-29.94-13.25-45.12-39.4-45.12-13.11,0-23.29,3.94-30.26,11.71-6.95,7.76-10.48,19-10.48,33.41v7.25c0,12.73.51,23.67.85,30.9.17,3.64.29,6.26.29,7.84,0,4.42-2.64,6.41-5.26,6.41-3.05,0-5.26-2.69-5.26-6.41,0-1.57.12-4.17.29-7.76.34-7.33.85-18.26.85-30.98v-28.82c0-19.55-4.3-19.55-7.14-19.55-3.21,0-5.45-2.08-5.45-5.07s2.24-5.07,5.45-5.07c4.89,0,12.7,2.72,14.82,19.26,8.18-13.85,22.56-21.36,41.28-21.36,30.27,0,47.63,19.31,47.63,52.97v7.63c0,12.32.47,52.52.82,81.86v.46c.19,15.34.33,27.45.33,29.42,0,3.59-2.31,6.41-5.26,6.41Z"/>
    <path class="cls-1" d="M431.6,310.52c-1.83,0-3.1-1.75-3.1-4.25,0-1.94.14-14.06.32-29.39.35-29.52.82-69.95.82-82.35v-7.25c0-30.93-14.37-47.28-41.56-47.28-13.75,0-24.47,4.18-31.86,12.43-7.32,8.16-11.03,19.89-11.03,34.85v7.25c0,12.79.51,23.75.85,31,.17,3.6.29,6.21.29,7.74,0,2.62-1.19,4.25-3.1,4.25s-3.1-1.75-3.1-4.25c0-1.53.12-4.13.29-7.74.34-7.25.85-18.22.85-31v-28.82c0-18.08-3.56-21.71-9.3-21.71-2.03,0-3.29-1.12-3.29-2.91s1.26-2.91,3.29-2.91c4.86,0,12.95,3.35,13.21,25.49,6.73-17.85,21.74-27.59,42.9-27.59,28.89,0,45.47,18.52,45.47,50.81v7.63c0,12.4.48,52.83.82,82.35.18,15.34.32,27.45.32,29.39,0,2.34-1.39,4.25-3.1,4.25Z"/>
    <path class="cls-1" d="M431.6,311.68c-2.47,0-4.26-2.27-4.26-5.4,0-1.95.14-14.07.32-29.41.35-29.52.82-69.94.82-82.33v-7.25c0-38.12-21.97-46.12-40.4-46.12-26.91,0-41.73,16.38-41.73,46.12v7.25c0,12.76.51,23.7.85,30.95.17,3.62.29,6.24.29,7.79,0,3.99-2.29,5.4-4.26,5.4-2.47,0-4.26-2.27-4.26-5.4,0-1.56.12-4.17.29-7.79.34-7.24.85-18.19.85-30.95v-28.82c0-18.98-3.85-20.55-8.15-20.55-2.66,0-4.45-1.64-4.45-4.07s1.79-4.07,4.45-4.07c4.87,0,12.74,2.97,14.15,21.56,7.64-15.35,22.18-23.66,41.95-23.66,29.63,0,46.63,18.94,46.63,51.97v7.63c0,12.39.48,52.82.82,82.33.18,15.34.32,27.46.32,29.41,0,2.98-1.91,5.4-4.26,5.4Z"/>
    <path class="cls-1" d="M433.7,306.28c0-5.53-1.15-92.66-1.15-111.74v-7.63c0-30.92-15.27-49.81-44.47-49.81-23.47,0-38.74,12.21-43.89,33.21v-5.53c0-22.52-7.82-25.57-12.21-25.57-1.34,0-2.29.57-2.29,1.91s.95,1.91,2.29,1.91c7.25,0,10.31,5.53,10.31,22.71v28.82c0,19.08-1.15,34.16-1.15,38.74,0,1.72.76,3.24,2.1,3.24,1.53,0,2.1-1.53,2.1-3.24,0-4.58-1.14-19.66-1.14-38.74v-7.25c0-30.34,15.46-48.28,43.89-48.28s42.56,17.94,42.56,48.28v7.25c0,19.08-1.15,106.21-1.15,111.74,0,1.72.76,3.24,2.1,3.24,1.15,0,2.1-1.53,2.1-3.24Z"/>
    <path class="cls-1" d="M495.91,277.66c-10.39,0-19.57-1.97-28.08-6.03-4.84-2.42-5.91-5.93-5.37-8.21.5-2.12,2.31-3.55,4.5-3.55.99,0,1.97.29,2.91.85,11.22,6.5,20.43,7.37,27.95,7.37,30.87,0,49.32-18.28,49.32-35.96,0-11.24-5.55-12.68-10.39-12.68-10.68,0-21.82,7.49-32.58,14.73-11.28,7.58-22.94,15.42-34.97,15.42-10.96,0-18.62-7.19-18.62-17.47,0-8.2,4.99-16.27,14.43-23.35,4.35-3.26,9.67-6.29,15.2-8.67-21.18-7.44-22.96-25.84-22.96-31.71,0-16.66,11.31-34.46,43.05-34.46,15.75,0,27.26,3.63,33.62,10.54,2.88-5.42,8.98-8.45,17.34-8.45,3.79,0,5.83,2.61,5.83,5.07s-1.91,5.07-5.45,5.07c-11.34,0-11.34,3.67-11.34,5.43s.41,2.93.77,4.03c.29.89.56,1.72.56,2.65,0,2.72-2.13,4.69-5.07,4.69-3.1,0-5.26-2.24-5.26-5.45,0-9.04-12.75-15.35-31-15.35-16.83,0-34.82,6.89-34.82,26.23s17.89,26.61,34.62,26.61c21.35,0,32.53-10.12,32.53-20.12,0-1.15-.23-1.88-.75-3.28-.44-1.1-.29-2.41.42-3.47.81-1.2,2.26-1.94,3.78-1.94,1.94,0,3.61,1.22,4.24,3.11l.04.12.04.19c.23,1.14.46,3.22.46,5.27,0,13.66-12.75,28.35-40.76,28.35-11.31,0-41.3,13.13-41.3,28.9,0,5.53,4.25,9.24,10.58,9.24,9.37,0,19.31-6.7,29.84-13.78,11.96-8.05,24.32-16.37,37.91-16.37,8.32,0,18.24,3.63,18.24,20.91,0,11.45-6.1,22.94-16.73,31.52-11.2,9.04-26.38,14.01-42.73,14.01Z"/>
    <path class="cls-1" d="M495.91,275.5c-10.06,0-18.94-1.9-27.15-5.82-3.68-1.84-4.56-4.25-4.2-5.76.27-1.15,1.21-1.89,2.4-1.89.59,0,1.2.18,1.8.54,11.69,6.77,21.25,7.68,29.07,7.68,32.22,0,51.48-19.38,51.48-38.12,0-9.99-4.1-14.84-12.55-14.84-11.34,0-22.75,7.67-33.79,15.1-11.01,7.4-22.39,15.06-33.77,15.06-9.69,0-16.46-6.3-16.46-15.31,0-7.49,4.69-14.97,13.57-21.63,5.86-4.4,13.4-8.26,20.81-10.74-25.62-5.33-27.7-25.17-27.7-31.38,0-15.61,10.74-32.3,40.89-32.3,17.43,0,29.17,4.42,34.29,12.85,1.47-6.88,7.37-10.75,16.67-10.75,2.39,0,3.67,1.5,3.67,2.91s-1.13,2.91-3.29,2.91c-9.34,0-13.5,2.34-13.5,7.59,0,2.02.49,3.51.88,4.71.25.78.46,1.39.46,1.97,0,1.54-1.14,2.53-2.91,2.53-1.91,0-3.1-1.26-3.1-3.29,0-10.47-13.33-17.51-33.16-17.51-27.26,0-36.98,14.66-36.98,28.39,0,21.21,19,28.77,36.79,28.77s34.69-7.65,34.69-22.28c0-1.55-.34-2.56-.89-4.04-.19-.48-.13-1.03.19-1.5.41-.6,1.19-.99,1.99-.99,1.01,0,1.85.63,2.19,1.63l.02.06v.06c.21,1,.41,2.96.41,4.78,0,12.61-12.08,26.19-38.6,26.19-12.25,0-43.46,13.77-43.46,31.06,0,6.71,5.24,11.4,12.74,11.4,10.03,0,20.24-6.87,31.05-14.15,11.69-7.87,23.77-16,36.7-16,10.67,0,16.08,6.31,16.08,18.75,0,10.79-5.8,21.67-15.93,29.83-10.82,8.73-25.51,13.53-41.37,13.53Z"/>
    <path class="cls-1" d="M495.91,276.66c-10.24,0-19.28-1.94-27.65-5.94-4.3-2.15-5.31-5.06-4.83-7.07.39-1.66,1.81-2.78,3.53-2.78.79,0,1.62.24,2.39.71,11.44,6.62,20.81,7.52,28.47,7.52,31.5,0,50.32-18.79,50.32-36.96,0-9.46-3.51-13.68-11.39-13.68-10.98,0-22.25,7.57-33.14,14.9-11.15,7.5-22.69,15.25-34.42,15.25-10.37,0-17.62-6.77-17.62-16.47,0-14.94,17.1-26.48,31.59-32.15-7-2.03-12.69-5.43-16.96-10.15-5.2-5.74-7.95-13.16-7.95-21.44,0-9.24,3.63-17.55,10.22-23.42,7.38-6.57,18.39-10.04,31.83-10.04,16.42,0,27.96,3.9,33.85,11.35,2.32-5.95,8.27-9.25,17.1-9.25,3.14,0,4.83,2.1,4.83,4.07s-1.56,4.07-4.45,4.07c-10.94,0-12.34,3.44-12.34,6.43,0,1.83.46,3.23.82,4.35.28.84.51,1.57.51,2.33,0,2.17-1.67,3.69-4.07,3.69-2.55,0-4.26-1.79-4.26-4.45,0-9.78-12.86-16.35-32-16.35-26.41,0-35.82,14.07-35.82,27.23,0,20.36,18.4,27.61,35.63,27.61s33.53-7.26,33.53-21.12c0-1.31-.26-2.15-.82-3.63-.33-.82-.22-1.77.31-2.56.63-.93,1.76-1.5,2.95-1.5,1.53,0,2.79.93,3.29,2.43l.04.13.03.13c.21,1.05.42,3.11.42,5,0,13.17-12.44,27.35-39.76,27.35-11.59,0-42.31,13.58-42.31,29.9,0,6.03,4.76,10.24,11.58,10.24,9.67,0,19.74-6.78,30.4-13.95,11.83-7.96,24.07-16.2,37.35-16.2,11.44,0,17.24,6.7,17.24,19.91,0,21.41-22.35,44.53-58.46,44.53Z"/>
    <path class="cls-1" d="M551.26,139.19c-10.11,0-16.03,4.58-16.03,13.36-3.82-10.31-16.41-15.46-34.92-15.46-27.86,0-39.89,14.89-39.89,31.3,0,14.69,9.35,28.24,31.11,31.11-15.27,4.01-37.79,16.6-37.79,32.63,0,8.59,6.49,14.31,15.46,14.31,22.33,0,44.47-30.15,67.56-30.15,8.97,0,13.55,5.15,13.55,15.84,0,19.47-20.23,39.12-52.48,39.12-9.35,0-18.7-1.53-29.58-7.82-2.86-1.72-4.77,2.48.95,5.34,8.4,4.01,17.18,5.72,26.72,5.72,33.59,0,56.3-21.37,56.3-42.37,0-12.21-5.15-17.75-15.08-17.75-24.43,0-46.37,30.15-67.75,30.15-8.01,0-13.74-5.15-13.74-12.4,0-17.94,31.68-32.06,44.47-32.06,24.24,0,37.6-12.02,37.6-25.19,0-1.72-.19-3.63-.38-4.58-.57-1.72-2.86-.76-2.48.19.57,1.53.95,2.67.95,4.39,0,12.02-12.6,23.28-35.69,23.28-26.72,0-37.79-14.31-37.79-29.77s11.45-29.39,37.98-29.39c21.18,0,34.16,7.63,34.16,18.51,0,1.53.76,2.29,2.1,2.29.95,0,1.91-.38,1.91-1.53s-1.34-3.24-1.34-6.68c0-7.06,6.87-8.59,14.5-8.59,1.53,0,2.29-.95,2.29-1.91s-.95-1.91-2.67-1.91Z"/>
    <path class="cls-1" d="M307.16,487.13c-.88,0-5.26-.33-5.26-6.79,0-1.85.12-8.62.27-18v-.23c.35-20.35.87-51.11.87-68.62v-31.87c0-16.95-.52-30.03-.87-38.68-.16-4.09-.28-7.01-.28-8.84,0-2.23.18-15.09.4-31.37v-.39c.4-28.82.94-68.3.94-80.16v-28.63c0-11.8-.46-18.6-.79-23.57-.2-2.91-.35-5.21-.35-7.54,0-3.71,2.29-6.41,5.45-6.41,2.79,0,5.07,2.87,5.07,6.41,0,2.33-.15,4.62-.35,7.53-.33,4.97-.79,11.78-.79,23.57v28.63c0,11.92.46,51.5.8,80.4.19,16.46.34,29.46.34,31.7,0,.1,0,.2-.01.3-.02,1.84-.15,4.56-.32,8.31-.41,8.73-1.01,21.8-1.01,38.72v10.96h90.62v-10.96c0-16.9-.61-29.97-1.01-38.61-.19-4.11-.33-7.05-.33-8.91,0-5,2.82-6.79,5.45-6.79.88,0,5.26.33,5.26,6.79,0,1.84-.12,4.77-.28,8.84-.34,8.66-.87,21.74-.87,38.68v31.87c0,17.41.52,35.37.86,47.26v.1c.16,5.35.28,9.58.28,11.49,0,6.46-4.38,6.79-5.26,6.79-2.63,0-5.45-1.78-5.45-6.79,0-1.9.14-5.93.33-11.51.4-11.89,1.01-29.86,1.01-47.35v-12.68h-90.62v12.68c0,17.51.61,48.26,1.01,68.61.19,9.51.32,16.37.32,18.24,0,5-2.82,6.79-5.45,6.79Z"/>
    <path class="cls-1" d="M307.16,484.97c-.93,0-3.1-.45-3.1-4.63,0-1.84.12-8.7.28-18.2.35-20.37.87-51.16.87-68.66v-31.87c0-16.98-.52-30.09-.87-38.77-.16-4.04-.28-6.96-.28-8.75,0-2.23.18-15.2.4-31.63.4-28.87.94-68.4.94-80.3v-28.63c0-11.87-.46-18.72-.8-23.71-.19-2.87-.35-5.14-.35-7.39,0-2.5,1.35-4.25,3.29-4.25,1.58,0,2.91,1.94,2.91,4.25s-.15,4.52-.35,7.39c-.34,5-.8,11.85-.8,23.71v28.63c0,11.9.46,51.51.8,80.43.19,16.46.34,29.45.34,31.68,0,.07,0,.14-.01.2-.02,1.81-.15,4.57-.32,8.39-.4,8.67-1.01,21.77-1.01,38.75v13.12h94.95v-13.12c0-16.98-.61-30.09-1.01-38.76-.19-4.04-.32-6.97-.32-8.76,0-4.03,2.06-4.63,3.29-4.63.93,0,3.1.45,3.1,4.63,0,1.79-.12,4.71-.28,8.75-.35,8.67-.87,21.78-.87,38.77v31.87c0,17.5.52,35.51.87,47.42.16,5.56.28,9.58.28,11.43,0,4.18-2.17,4.63-3.1,4.63-1.23,0-3.29-.6-3.29-4.63,0-1.85.14-5.87.32-11.44.4-11.92,1.01-29.93,1.01-47.42v-14.84h-94.95v14.84c0,17.5.61,48.28,1.01,68.65.19,9.5.32,16.36.32,18.2,0,4.03-2.06,4.63-3.29,4.63Z"/>
    <path class="cls-1" d="M307.16,486.13c-.71,0-4.26-.28-4.26-5.79,0-1.85.12-8.72.28-18.22.35-20.37.87-51.15.87-68.64v-31.87c0-16.96-.52-30.05-.87-38.72-.16-4.06-.28-6.99-.28-8.8,0-2.24.18-15.21.4-31.64.4-28.86.94-68.39.94-80.28v-28.63c0-11.83-.46-18.65-.8-23.64-.19-2.89-.35-5.18-.35-7.47,0-3.18,1.83-5.4,4.45-5.4,2.24,0,4.07,2.42,4.07,5.4,0,2.29-.15,4.58-.35,7.47-.34,4.98-.8,11.81-.8,23.64v28.63c0,11.89.46,51.5.8,80.42.19,16.46.34,29.46.34,31.69,0,.1,0,.21-.02.31-.01,1.74-.14,4.51-.32,8.34-.4,8.66-1.01,21.75-1.01,38.69v11.96h92.63v-11.96c0-16.95-.61-30.04-1.01-38.71-.19-4.06-.33-6.99-.33-8.81,0-5.37,3.41-5.79,4.45-5.79.71,0,4.26.28,4.26,5.79,0,1.81-.12,4.74-.28,8.8-.35,8.66-.87,21.76-.87,38.72v31.87c0,17.48.52,35.48.87,47.39.16,5.57.28,9.6.28,11.46,0,5.51-3.55,5.79-4.26,5.79-1.04,0-4.45-.42-4.45-5.79,0-1.87.14-5.9.33-11.47.4-11.91,1.01-29.91,1.01-47.38v-13.68h-92.63v13.68c0,17.49.61,48.27,1.01,68.63.19,9.5.32,16.37.32,18.22,0,5.37-3.41,5.79-4.45,5.79Z"/>
    <path class="cls-1" d="M408.12,314.1c0-2.67-.95-3.63-2.1-3.63-1.34,0-2.29.95-2.29,3.63,0,5.53,1.34,22.52,1.34,47.52v14.12h-96.95v-14.12c0-24.47,1.28-41.26,1.33-47.15,0-.06.01-.13.01-.19,0-6.11-1.14-93.4-1.14-112.11v-28.63c0-18.7,1.14-25,1.14-31.11,0-1.72-.95-3.24-1.91-3.24-1.53,0-2.29,1.53-2.29,3.24,0,6.11,1.14,12.4,1.14,31.11v28.63c0,18.7-1.35,105.82-1.35,111.92,0,5.53,1.15,22.52,1.15,47.52v31.87c0,25.76-1.15,81.13-1.15,86.86,0,2.67.95,3.63,2.1,3.63,1.34,0,2.29-.95,2.29-3.63,0-5.73-1.34-61.09-1.34-86.86v-15.84h96.95v15.84c0,25.76-1.34,53.13-1.34,58.86,0,2.67.95,3.63,2.29,3.63,1.15,0,2.1-.95,2.1-3.63,0-5.73-1.15-33.09-1.15-58.86v-31.87c0-25,1.15-41.99,1.15-47.52Z"/>
    <path class="cls-1" d="M482.54,451.23c-26.51,0-54.69-18.9-54.69-53.92,0-20.21,9.33-32.82,17.15-39.83,9.99-8.96,23.67-14.09,37.53-14.09,26.51,0,54.69,18.9,54.69,53.93,0,20.21-9.33,32.82-17.15,39.83-9.99,8.96-23.67,14.09-37.53,14.09ZM482.54,351.61c-22.52,0-46.46,16.01-46.46,45.69s23.94,45.69,46.46,45.69,46.46-16.01,46.46-45.69-23.94-45.69-46.46-45.69Z"/>
    <path class="cls-1" d="M482.54,449.07c-25.46,0-52.53-18.14-52.53-51.76,0-19.42,8.94-31.5,16.44-38.22,9.6-8.61,22.76-13.54,36.09-13.54,25.46,0,52.53,18.14,52.53,51.77,0,19.42-8.94,31.5-16.44,38.22-9.6,8.61-22.76,13.54-36.09,13.54ZM482.54,349.45c-23.57,0-48.62,16.77-48.62,47.85s25.05,47.85,48.62,47.85,48.62-16.77,48.62-47.85-25.05-47.85-48.62-47.85Z"/>
    <path class="cls-1" d="M482.54,450.23c-13.62,0-27.05-5.04-36.87-13.84-7.67-6.88-16.82-19.24-16.82-39.08s9.15-32.21,16.82-39.09c9.81-8.79,23.25-13.84,36.87-13.84,26.03,0,53.69,18.55,53.69,52.93,0,19.84-9.15,32.21-16.82,39.08-9.81,8.79-23.25,13.84-36.87,13.84ZM482.54,350.61c-23.01,0-47.46,16.37-47.46,46.7s24.45,46.7,47.46,46.7,47.46-16.37,47.46-46.7-24.45-46.7-47.46-46.7Z"/>
    <path class="cls-1" d="M482.55,346.54c-25.76,0-51.53,18.51-51.53,50.76s25.76,50.76,51.53,50.76,51.53-18.51,51.53-50.76-25.76-50.76-51.53-50.76ZM482.55,446.16c-24.81,0-49.62-17.75-49.62-48.86s24.81-48.86,49.62-48.86,49.62,17.75,49.62,48.86-24.81,48.86-49.62,48.86Z"/>
    <path class="cls-1" d="M599.92,451.04c-14.88,0-26.38-4.33-34.2-12.86-7.77-8.48-11.71-20.95-11.71-37.05v-10.69c0-12.31-.47-22.38-.82-29.74-.18-3.92-.33-6.97-.33-9,0-3.59,2.31-6.41,5.26-6.41s5.26,2.69,5.26,6.41c0,1.99-.14,5.02-.32,8.85v.11c-.35,7.36-.82,17.45-.82,29.78v10.3c0,28.7,11.97,42.07,37.68,42.07,13.7,0,24.3-3.88,31.52-11.53,7.25-7.69,10.93-18.99,10.93-33.59v-7.25c0-12.73-.51-23.67-.85-30.9-.17-3.64-.29-6.26-.29-7.84,0-4.42,2.64-6.41,5.26-6.41,3.05,0,5.26,2.69,5.26,6.41,0,1.58-.12,4.21-.29,7.84-.34,7.22-.85,18.14-.85,30.9v28.82c0,19.55,4.3,19.55,7.14,19.55,3.21,0,5.45,2.08,5.45,5.07s-2.24,5.07-5.45,5.07c-4.91,0-12.74-2.73-14.84-19.39-8.38,13.93-23.35,21.49-42.98,21.49Z"/>
    <path class="cls-1" d="M599.92,448.88c-28.62,0-43.75-16.51-43.75-47.76v-10.69c0-12.38-.47-22.5-.82-29.88-.18-3.85-.32-6.9-.32-8.86,0-2.34,1.39-4.25,3.1-4.25,1.83,0,3.1,1.75,3.1,4.25,0,1.96-.14,5-.32,8.86-.35,7.39-.82,17.5-.82,29.88v10.3c0,29.76,13.03,44.23,39.84,44.23,28.77,0,44.61-16.79,44.61-47.28v-7.25c0-12.79-.51-23.75-.85-31-.17-3.6-.29-6.21-.29-7.74,0-2.62,1.19-4.25,3.1-4.25s3.1,1.75,3.1,4.25c0,1.53-.12,4.13-.29,7.74-.34,7.25-.85,18.22-.85,31v28.82c0,18.08,3.56,21.71,9.3,21.71,2.03,0,3.29,1.12,3.29,2.91s-1.26,2.91-3.29,2.91c-4.86,0-12.96-3.35-13.21-25.54-6.83,17.89-22.44,27.64-44.62,27.64Z"/>
    <path class="cls-1" d="M599.92,450.04c-29.38,0-44.91-16.92-44.91-48.92v-10.69c0-12.35-.47-22.45-.82-29.83-.18-3.87-.33-6.92-.33-8.91,0-2.98,1.91-5.4,4.26-5.4,2.47,0,4.26,2.27,4.26,5.4,0,1.99-.14,5.04-.33,8.91-.35,7.38-.82,17.47-.82,29.83v10.3c0,28.98,12.65,43.07,38.68,43.07,28.02,0,43.45-16.38,43.45-46.12v-7.25c0-12.76-.51-23.7-.85-30.95-.17-3.62-.29-6.24-.29-7.79,0-3.99,2.29-5.4,4.26-5.4,2.47,0,4.26,2.27,4.26,5.4,0,1.56-.12,4.17-.29,7.79-.34,7.24-.85,18.19-.85,30.95v28.82c0,18.98,3.85,20.55,8.15,20.55,2.66,0,4.45,1.63,4.45,4.07s-1.79,4.07-4.45,4.07c-4.88,0-12.77-2.98-14.16-21.66-7.81,15.42-22.94,23.76-43.66,23.76Z"/>
    <path class="cls-1" d="M657.74,441.96c-7.25,0-10.31-5.53-10.31-22.71v-28.82c0-19.08,1.15-34.16,1.15-38.74,0-1.72-.76-3.24-2.1-3.24-1.53,0-2.1,1.53-2.1,3.24,0,4.58,1.14,19.66,1.14,38.74v7.25c0,30.34-15.65,48.28-45.61,48.28-27.1,0-40.84-14.89-40.84-45.23v-10.31c0-19.08,1.15-33.21,1.15-38.74,0-1.72-.76-3.24-2.1-3.24-1.14,0-2.1,1.53-2.1,3.24,0,5.53,1.14,19.66,1.14,38.74v10.69c0,30.92,14.7,46.76,42.75,46.76,24.81,0,40.46-12.21,45.61-33.21v5.53c0,22.52,7.83,25.57,12.21,25.57,1.34,0,2.29-.57,2.29-1.91s-.95-1.91-2.29-1.91Z"/>
    <path class="cls-1" d="M685.99,525.13c-3.05,0-5.26-2.69-5.26-6.41,0-1.47.11-11.46.27-25.28l.02-1.69c.34-29.84.86-74.94.86-87.77v-28.82c0-19.55-4.3-19.55-7.14-19.55-3.21,0-5.45-2.08-5.45-5.07s2.24-5.07,5.45-5.07c4.51,0,11.77,2.34,14.39,16.46,7.11-12.09,19.59-17.99,37.9-17.99,4.06,0,12.51,0,12.51,5.64,0,2.78-2.26,4.88-5.26,4.88-1.15,0-2.3-.09-3.75-.2-2.2-.17-4.88-.37-8.84-.37-29.13,0-31.57,22.1-31.57,44.74v5.34c0,12.91.53,59.77.85,87.77l.02,1.65c.16,13.85.27,23.85.27,25.32,0,4.42-2.64,6.41-5.26,6.41Z"/>
    <path class="cls-1" d="M685.99,522.97c-1.83,0-3.1-1.75-3.1-4.25,0-1.51.12-12.18.29-26.95.34-29.86.86-74.99.86-87.79v-28.82c0-18.08-3.56-21.71-9.3-21.71-2.03,0-3.29-1.12-3.29-2.91s1.26-2.91,3.29-2.91c4.6,0,12.11,3,13.1,22.15,5.78-15.92,18.67-23.68,39.19-23.68,5.12,0,10.35.41,10.35,3.48,0,1.57-1.3,2.72-3.1,2.72-1.07,0-2.19-.09-3.61-.19-2.2-.17-4.94-.38-8.99-.38-31.13,0-33.73,24.21-33.73,46.9v5.34c0,12.8.51,57.93.85,87.79.17,14.77.29,25.44.29,26.95,0,2.62-1.19,4.25-3.1,4.25Z"/>
    <path class="cls-1" d="M685.99,524.13c-2.47,0-4.26-2.27-4.26-5.4,0-1.52.12-12.19.29-26.96.34-29.86.86-74.98.86-87.78v-28.82c0-18.98-3.85-20.55-8.15-20.55-2.66,0-4.45-1.63-4.45-4.07s1.79-4.07,4.45-4.07c4.6,0,11.86,2.64,13.85,18.56,6.62-13.49,19.3-20.08,38.44-20.08,4.02,0,11.51,0,11.51,4.64,0,2.25-1.79,3.88-4.26,3.88-1.12,0-2.31-.09-3.69-.2-2.18-.17-4.89-.38-8.9-.38-13.47,0-22.42,4.58-27.33,13.99-4.62,8.84-5.24,21.01-5.24,31.75v5.34c0,12.8.51,57.92.85,87.78.17,14.77.29,25.45.29,26.96,0,3.99-2.29,5.4-4.26,5.4Z"/>
    <path class="cls-1" d="M727.02,347.11c-26.34,0-36.45,12.98-40.08,29.39v-2.29c0-22.52-7.82-25.57-12.21-25.57-1.34,0-2.29.57-2.29,1.91s.95,1.91,2.29,1.91c7.25,0,10.31,5.54,10.31,22.71v28.82c0,19.08-1.15,110.16-1.15,114.74,0,1.72.76,3.24,2.1,3.24,1.53,0,2.1-1.53,2.1-3.24,0-4.58-1.14-95.66-1.14-114.74v-5.34c0-23.47,3.05-47.9,34.73-47.9,6.68,0,9.92.57,12.59.57,1.34,0,2.1-.76,2.1-1.72,0-2.1-4.77-2.48-9.35-2.48Z"/>
  </g>
  <use width="225.72" height="172.8" transform="translate(271.53 61.05) scale(.37)" xlink:href="#Grime_Vector_Pack_10"/>
</svg>