<?xml version="1.0" encoding="UTF-8"?>
<svg id="Layer_1" xmlns="http://www.w3.org/2000/svg" version="1.1" viewBox="0 0 576 181.59">
  <!-- Generator: Adobe Illustrator 29.0.0, SVG Export Plug-In . SVG Version: 2.1.0 Build 186)  -->
  <defs>
    <style>
      .st0 {
        fill: #c82c27;
      }
    </style>
  </defs>
  <path class="st0" d="M53.95,69.43l2.11-.08c1.58-.08,18.69-2.03,30.15-.38,5.2.23,7.61,1.96,8.37,4.82,1.36,5.65,1.88,11.08.98,16.13-.53,1.81-1.66,2.94-2.86,3.99l-1.13.75-1.43.6c2.86,10.63.98,16.5,7.69,21.7l5.28.68,12.13.38.3,10.93c-.98,0-1.43.08-1.43.15h-8.21c-3.99,0-11.61-.45-15.45-2.41-2.86-1.05-5.43-3.01-7.31-6.25l-.53-.68-.98-2.11c-.08-.3-.23-.83-.38-1.13l-.3-1.36c-.15-.68-.45-1.96-.75-6.03-.75-3.47-1.13-11.68-5.88-12.28l-.15,8.44c-.08,3.17-.15,5.65-.15,12.59-6.25,0-11.46-1.51-15.22-1.73v-.23c0-1.73-.15-3.32-.6-9.5v-5.73c0-1.28.08-2.79.08-4.3v-1.13l-.08-3.09c-.08-1.66.23-9.34.23-11.68l-4.6.23c.45-3.92-.3-7.76.15-11.3ZM73.31,87.45h3.84c1.43,0,1.88-1.28,1.73-2.94l-.45-4.07c0-.23-.83-.53-5.5-.45-.08.98.08,2.79.38,7.46Z"/>
  <path class="st0" d="M124.87,113.75v-.6h.08v-.98l-.3-4.9c-.75.08-1.58.15-2.34.15h-2.41c-1.36,0-4.15.08-5.35.38l-.3,5.65c-.6.6-1.43.83-5.05.83-.98-.15-1.96-.15-2.86-.3l-6.25-.23.6-5.28.6-2.86.68-5.12.68-3.32.83-4.52.23-1.58,1.13-4.9v.3l.38-2.41.15-1.36.68-4.15.98-3.32c.38-.83.68-1.88.98-2.79,1.13-3.69,1.28-4.6,1.88-5.58h-.3c-2.34,0-4.6.15-7.46.3l-4.97.23c-.68,0-.98-.23-.98-1.66l.68-8.21c.08-.68.15-1.73.83-1.73.75.23,1.66.38,2.56.3l44.01-2.04,5.88-.38c0,.6.08,2.11.08,3.92,0,3.54-.45,8.29-3.09,8.89l-3.24.45-8.44.6,5.35,44.61c0,.75-2.49.3-15.9,1.58ZM123.66,98.67l-.15-.75-3.77-27.88-.68,6.26-3.84,19.07-.38,3.69,8.82-.38Z"/>
  <path class="st0" d="M160.74,85.86c1.66-.3,3.17-.3,4.82-.45,4.97.23,8.21.45,9.65,1.06,0,3.09-.15,6.33-.45,9.04-1.58.38-4.07.45-7.31.6l-5.95-.45c-3.24,0-6.71-.23-9.72-.23h-4.07c-1.58-.23-2.49-.38-2.56-.45,0,0,0-9.57.9-9.57,4.15.15,9.04.45,14.7.45Z"/>
  <path class="st0" d="M176.57,69.43l2.11-.08c1.58-.08,18.69-2.03,30.15-.38,5.2.23,7.61,1.96,8.37,4.82,1.36,5.65,1.88,11.08.98,16.13-.53,1.81-1.66,2.94-2.86,3.99l-1.13.75-1.43.6c2.86,10.63.98,16.5,7.69,21.7l5.28.68,12.13.38.3,10.93c-.98,0-1.43.08-1.43.15h-8.21c-3.99,0-11.61-.45-15.45-2.41-2.86-1.05-5.43-3.01-7.31-6.25l-.53-.68-.98-2.11c-.08-.3-.23-.83-.38-1.13l-.3-1.36c-.15-.68-.45-1.96-.75-6.03-.75-3.47-1.13-11.68-5.88-12.28l-.15,8.44c-.08,3.17-.15,5.65-.15,12.59-6.25,0-11.46-1.51-15.22-1.73v-.23c0-1.73-.15-3.32-.6-9.5v-5.73c0-1.28.08-2.79.08-4.3v-1.13l-.08-3.09c-.08-1.66.23-9.34.23-11.68l-4.6.23c.45-3.92-.3-7.76.15-11.3ZM195.94,87.45h3.84c1.43,0,1.88-1.28,1.73-2.94l-.45-4.07c0-.23-.83-.53-5.5-.45-.08.98.08,2.79.38,7.46Z"/>
  <path class="st0" d="M247.49,113.75v-.6h.08v-.98l-.3-4.9c-.75.08-1.58.15-2.34.15h-2.41c-1.36,0-4.15.08-5.35.38l-.3,5.65c-.6.6-1.43.83-5.05.83-.98-.15-1.96-.15-2.86-.3l-6.25-.23.6-5.28.6-2.86.68-5.12.68-3.32.83-4.52.23-1.58,1.13-4.9v.3l.38-2.41.15-1.36.68-4.15.98-3.32c.38-.83.68-1.88.98-2.79,1.13-3.69,1.28-4.6,1.88-5.58h-.3c-2.34,0-4.6.15-7.46.3l-4.97.23c-.68,0-.98-.23-.98-1.66l.68-8.21c.08-.68.15-1.73.83-1.73.75.23,1.66.38,2.56.3l44.01-2.04,5.88-.38c0,.6.08,2.11.08,3.92,0,3.54-.45,8.29-3.09,8.89l-3.24.45-8.44.6,5.35,44.61c0,.75-2.49.3-15.9,1.58ZM246.28,98.67l-.15-.75-3.77-27.88-.68,6.26-3.84,19.07-.38,3.69,8.82-.38Z"/>
  <path class="st0" d="M283.36,85.86c1.66-.3,3.17-.3,4.82-.45,4.97.23,8.21.45,9.65,1.06,0,3.09-.15,6.33-.45,9.04-1.58.38-4.07.45-7.31.6l-5.95-.45c-3.24,0-6.71-.23-9.72-.23h-4.07c-1.58-.23-2.49-.38-2.56-.45,0,0,0-9.57.9-9.57,4.15.15,9.04.45,14.7.45Z"/>
  <path class="st0" d="M299.19,69.43l2.11-.08c1.58-.08,18.69-2.03,30.15-.38,5.2.23,7.61,1.96,8.37,4.82,1.36,5.65,1.88,11.08.98,16.13-.53,1.81-1.66,2.94-2.86,3.99l-1.13.75-1.43.6c2.86,10.63.98,16.5,7.69,21.7l5.28.68,12.13.38.3,10.93c-.98,0-1.43.08-1.43.15h-8.21c-3.99,0-11.61-.45-15.45-2.41-2.86-1.05-5.43-3.01-7.31-6.25l-.53-.68-.98-2.11c-.08-.3-.23-.83-.38-1.13l-.3-1.36c-.15-.68-.45-1.96-.75-6.03-.75-3.47-1.13-11.68-5.88-12.28l-.15,8.44c-.08,3.17-.15,5.65-.15,12.59-6.25,0-11.46-1.51-15.22-1.73v-.23c0-1.73-.15-3.32-.6-9.5v-5.73c0-1.28.08-2.79.08-4.3v-1.13l-.08-3.09c-.08-1.66.23-9.34.23-11.68l-4.6.23c.45-3.92-.3-7.76.15-11.3ZM318.56,87.45h3.84c1.43,0,1.88-1.28,1.73-2.94l-.45-4.07c0-.23-.83-.53-5.5-.45-.08.98.08,2.79.38,7.46Z"/>
  <path class="st0" d="M370.11,113.75v-.6h.08v-.98l-.3-4.9c-.75.08-1.58.15-2.34.15h-2.41c-1.36,0-4.15.08-5.35.38l-.3,5.65c-.6.6-1.43.83-5.05.83-.98-.15-1.96-.15-2.86-.3l-6.26-.23.6-5.28.6-2.86.68-5.12.68-3.32.83-4.52.23-1.58,1.13-4.9v.3l.38-2.41.15-1.36.68-4.15.98-3.32c.38-.83.68-1.88.98-2.79,1.13-3.69,1.28-4.6,1.88-5.58h-.3c-2.34,0-4.6.15-7.46.3l-4.97.23c-.68,0-.98-.23-.98-1.66l.68-8.21c.08-.68.15-1.73.83-1.73.75.23,1.66.38,2.56.3l44.01-2.04,5.88-.38c0,.6.08,2.11.08,3.92,0,3.54-.45,8.29-3.09,8.89l-3.24.45-8.44.6,5.35,44.61c0,.75-2.49.3-15.9,1.58ZM368.91,98.67l-.15-.75-3.77-27.88-.68,6.26-3.84,19.07-.38,3.69,8.82-.38Z"/>
  <path class="st0" d="M438.09,69.81c.15.75.3,2.86.3,5.35v1.05c0,4.45.38,9.72.45,14.09l.08,8.14v.45l-.08,2.71.08,2.79.08,11.91c0,2.19.3,4.82.23,6.78l-.08,1.73v.38c0,.53.08,1.13.08,1.58v.83c-3.24.83-8.52,1.21-12.66,1.51.08-2.11-.23-4.3-.15-6.41l.08-2.26c0-.53-.15-.98-.15-1.51l.08-1.66v-.3l-.15-8.14.08-1.43c.08-1.66-.15-3.47-.15-5.8v-7.91l-1.21,1.96c-.3.68-.68,1.81-.98,2.56l-1.73,4.52c-.15.38-.45.68-.53,1.13l-.45,1.28-.6,1.28-2.56,6.25c-.15.3-.23.68-.38.9-2.03.15-5.35.3-7.08.53l-1.21-4.22-1.88-6.48c-.15-.38-.23-.98-.38-1.36l-2.86-9.8c-.15-.23-.23-.6-.3-.9v12.51c0,2.86-.23,6.03-.23,8.97-3.62.98-5.58,1.43-10.47,1.43h-1.81c-1.21,0-1.43-.3-1.43-.98,0-.45.08-.9.08-1.58v-4.75c0-9.35-.08-9.95,0-11.76l.23-4.37c.15-2.26.3-4.22.3-6.25v-2.49c0-.38.08-.75.08-1.13l.23-3.32c.23-3.69.53-7.01.45-9.12,4.52-.45,10.25-.68,17.11-.83l.6,1.81c.08.3.23.75.23.98l1.58,5.12.15.9.98,2.94.75,2.94,2.04,6.93.3,1.13.45,1.58,1.21-3.47.9-2.64c.23-.38.38-.75.53-1.21l1.66-4.22c.45-1.21.9-2.26,1.43-3.47l.53-1.13,1.81-4.6c.45-1.73,4.37-1.81,7.54-1.81,1.66,0,4.9.08,6.86.3Z"/>
  <path class="st0" d="M442.24,104.63c0-.38.08-.68.08-.9v-1.81c0-.98.15-2.41.3-3.54l.23-17.63v-.98l.08-.9-.15-13.34h-.68c-1.43,0-8.89.3-10.85.3-.98,0-1.21-.3-1.21-.83,0-.45.23-1.13.23-1.73v-5.8c0-4.75.45-3.39,3.01-3.77h3.09c33.23,0,36.78.53,38.28.68l.83.08v1.36c0,3.09-.45,6.26-.23,9.42-3.77.08-12.36.15-14.39.38l-.68,10.63.53.15h1.21l8.06.3c.6,0,1.21.15,1.81.15,0,2.03.68,6.26.08,9.57-3.77-.23-7.01-.23-8.37-.23l-4.45.38c-.15,1.58-.53,4.6-.75,8.06l12.21.53c.75,0,3.77-.08,5.73.15,0,2.64.83,5.65.23,9.19l-33.46,1.13c-.6,0-.75-.53-.75-.98Z"/>
  <path class="st0" d="M518.89,76.07l.08,3.54-.45,26.3v.6c0,.75-.08,1.58-.08,2.64v5.65c0,1.51-.15,3.54-.75,5.12h-4.37c-.53,0-1.43.08-2.34.08-1.81,0-3.84-.23-4.45-1.73l-1.51-2.49-2.19-3.77-2.11-3.99c-.53-.75-.9-1.51-1.43-2.41l-.68-1.21-.45-.75-.68-1.28c-.23-.3-.3-.68-.53-.9l-.75-1.36-.68-1.28v.98c0,.45-.08.9-.08,1.36l.08,1.58c.08,1.28.08,2.94.08,4.75v1.28c0,1.81.15,3.54.15,5.35v4.67c0,.38.08.75.08,1.13v.75l-.08,6.25c-3.24.9-6.41.08-11.91,1.13-.53,0-.75,0-1.21-.08l-1.13-.38c-.23-.08-.3-.38-.6-.68v-1.28c0-1.21-.15-5.95-.3-11.76,0-.75.08-1.43.08-2.11v-2.71l-.23-1.43c0-.6.08-1.28.08-1.88,0-15.07-1.28-21.55-1.28-33.69v-1.73c2.11-.15,3.84-.3,6.03-.3h7.99c.38,0,1.06-.15,1.58.98l1.73,3.62c.68,1.43.98,3.09,1.96,4.67l1.66,4.3,2.26,5.5v-9.5l.15-10.55,15.83.83c.3.3.38,2.71.45,6.18Z"/>
  <g>
    <path class="st0" d="M175.21,35.64c0,3.2-1.67,4.32-6.5,4.32-2.6,0-4.84-1.39-7.8-4.32,2.83-2.9,4.91-4.32,7.8-4.32,4.83,0,6.5.68,6.5,4.32Z"/>
    <path class="st0" d="M163.7,19.6c3.04.99,3.59,2.92,2.1,7.52-.8,2.47-2.82,4.18-6.52,6.08-1.88-3.58-2.59-6-1.7-8.76,1.49-4.6,2.66-5.98,6.12-4.85Z"/>
    <path class="st0" d="M144.89,25.59c1.88-2.59,3.89-2.52,7.8.33,2.1,1.53,3.1,3.97,3.77,8.08-3.99.68-6.51.61-8.85-1.09-3.91-2.84-4.86-4.37-2.72-7.32Z"/>
    <path class="st0" d="M144.78,45.33c-1.88-2.59-1.19-4.48,2.72-7.32,2.1-1.53,4.74-1.72,8.85-1.09-.58,4-1.43,6.38-3.77,8.08-3.91,2.84-5.66,3.27-7.8.33Z"/>
    <path class="st0" d="M163.52,51.54c-3.04.99-4.63-.25-6.12-4.85-.8-2.47-.17-5.04,1.7-8.76,3.63,1.79,5.63,3.33,6.52,6.08,1.49,4.6,1.36,6.39-2.1,7.52Z"/>
  </g>
  <g>
    <path class="st0" d="M384.53,129.78c1.93,2.55,1.28,4.45-2.57,7.37-2.07,1.57-4.7,1.82-8.83,1.27.5-4.02,1.3-6.41,3.6-8.16,3.85-2.92,5.59-3.39,7.79-.49Z"/>
    <path class="st0" d="M365.66,123.96c3.02-1.05,4.63.15,6.22,4.72.85,2.45.28,5.03-1.52,8.79-3.67-1.72-5.7-3.22-6.65-5.95-1.59-4.57-1.5-6.36,1.94-7.56Z"/>
    <path class="st0" d="M354.3,140.1c-.07-3.2,1.58-4.36,6.41-4.46,2.6-.05,4.87,1.29,7.89,4.16-2.77,2.96-4.82,4.42-7.71,4.48-4.83.1-6.52-.54-6.59-4.19Z"/>
    <path class="st0" d="M366.15,155.9c-3.06-.92-3.65-2.85-2.26-7.48.75-2.49,2.73-4.24,6.39-6.22,1.96,3.54,2.72,5.95,1.88,8.72-1.4,4.63-2.53,6.03-6.02,4.98Z"/>
    <path class="st0" d="M384.83,149.52c-1.82,2.62-3.84,2.6-7.81-.16-2.13-1.48-3.18-3.91-3.94-8,3.97-.77,6.5-.75,8.87.9,3.97,2.76,4.95,4.27,2.87,7.26Z"/>
  </g>
  <g>
    <path class="st0" d="M508.99,32.72c2.59,1.87,2.53,3.88-.3,7.8-1.52,2.11-3.96,3.12-8.07,3.8-.7-3.99-.64-6.51,1.05-8.86,2.83-3.92,4.35-4.88,7.31-2.75Z"/>
    <path class="st0" d="M489.25,32.68c2.58-1.89,4.47-1.21,7.33,2.69,1.54,2.1,1.74,4.73,1.12,8.85-4.01-.57-6.39-1.41-8.1-3.74-2.86-3.9-3.3-5.65-.36-7.8Z"/>
    <path class="st0" d="M483.11,51.45c-1-3.04.23-4.63,4.83-6.14,2.47-.81,5.04-.19,8.76,1.66-1.78,3.64-3.31,5.64-6.06,6.55-4.59,1.51-6.39,1.39-7.53-2.07Z"/>
    <path class="st0" d="M499.06,63.08c-3.2.01-4.33-1.65-4.35-6.49-.01-2.6,1.37-4.85,4.29-7.82,2.91,2.82,4.34,4.89,4.35,7.78.02,4.83-.65,6.51-4.3,6.52Z"/>
    <path class="st0" d="M515.05,51.51c-.98,3.04-2.91,3.61-7.51,2.13-2.47-.79-4.19-2.8-6.11-6.5,3.58-1.9,5.99-2.62,8.75-1.73,4.6,1.48,5.99,2.63,4.87,6.1Z"/>
  </g>
  <g>
    <path class="st0" d="M67.18,130.36c1.69,2.71.87,4.55-3.23,7.11-2.2,1.38-4.85,1.39-8.91.47.86-3.95,1.88-6.27,4.33-7.8,4.1-2.56,5.88-2.87,7.81.22Z"/>
    <path class="st0" d="M48.93,122.85c3.1-.77,4.6.58,5.76,5.27.63,2.52-.18,5.04-2.31,8.61-3.49-2.04-5.38-3.72-6.08-6.53-1.17-4.69-.91-6.47,2.62-7.35Z"/>
    <path class="st0" d="M36.14,137.89c.22-3.19,1.97-4.19,6.79-3.85,2.59.18,4.73,1.73,7.48,4.86-3.02,2.69-5.2,3.97-8.09,3.76-4.82-.34-6.44-1.13-6.18-4.77Z"/>
    <path class="st0" d="M46.5,154.7c-2.96-1.2-3.38-3.17-1.57-7.65.97-2.41,3.11-3.97,6.93-5.61,1.63,3.71,2.17,6.17,1.08,8.85-1.81,4.48-3.07,5.77-6.45,4.41Z"/>
    <path class="st0" d="M65.68,150.04c-2.06,2.45-4.06,2.24-7.76-.87-1.99-1.67-2.82-4.18-3.2-8.33,4.03-.4,6.54-.15,8.75,1.71,3.7,3.11,4.54,4.7,2.2,7.49Z"/>
  </g>
</svg>